<?xml version="1.0" standalone="no"?>
<!DOCTYPE svg PUBLIC "-//W3C//DTD SVG 1.1//EN" "http://www.w3.org/Graphics/SVG/1.1/DTD/svg11.dtd" >
<svg>
<metadata>
Created by FontForge 20090914 at Fri Jun 24 18:05:36 2016
 By www-data
(c) 1993 Titivillus Foundry/Ethel Enterprises. **All rights reserved.**Generated by Fontographer 3.5
</metadata>
<defs>
<font id="SamarkanNormal" horiz-adv-x="297" >
  <font-face 
    font-family="Samarkan"
    font-weight="400"
    font-stretch="normal"
    units-per-em="2048"
    panose-1="2 11 5 0 0 0 0 0 0 0"
    ascent="1638"
    descent="-410"
    x-height="1085"
    cap-height="1622"
    bbox="-283.001 -674.002 1579 1855"
    underline-thickness="20"
    underline-position="-123"
    unicode-range="U+0020-U+201D"
  />
<missing-glyph horiz-adv-x="1536" 
d="M256 0v1280h1024v-1280h-1024zM1247 33v1214h-958v-1214h958z" />
    <glyph glyph-name=".notdef" horiz-adv-x="1536" 
d="M256 0v1280h1024v-1280h-1024zM1247 33v1214h-958v-1214h958z" />
    <glyph glyph-name="space" unicode=" " horiz-adv-x="666" 
 />
    <glyph glyph-name="exclam" unicode="!" horiz-adv-x="451" 
d="M365 1636c-3.33301 -46 -8.66699 -129.834 -16 -251.501s-15 -261.667 -23 -420s-14.333 -322.166 -19 -491.499l-164 -98c-1.33301 80 -5 211.333 -11 394s-11.167 321.5 -15.5 416.5l-11.5 250l-7 153.5zM398.999 175.999c-6 -10 -21.832 -30.667 -47.499 -62
s-60.834 -69.333 -105.501 -114c-28.667 22 -88.667 78.667 -180 170l55 62.5l71.5 79.5c22.333 24 35.833 36 40.5 36c1.33301 0 22.5 -21.5 63.5 -64.5z" />
    <glyph glyph-name="quotedbl" unicode="&#x22;" horiz-adv-x="584" 
d="M530 1325c-25.333 0 -53.5 9 -84.5 27s-57.667 40.667 -80 68s-33.5 53 -33.5 77c0 22 11.333 45.333 34 70s40.667 37 54 37l104 -97l-33 -27c-8.66699 -7.33301 -16.5 -15.833 -23.5 -25.5s-10.5 -20.167 -10.5 -31.5c0 -14.667 11.667 -34 35 -58s36 -37.333 38 -40z
M238 1325c-25.333 0 -53.667 9.00098 -85 27.001s-58.166 40.667 -80.499 68s-33.5 53 -33.5 77c0 22 11.333 45.333 34 70s40.667 37 54 37l104 -97l-33 -27c-8.66699 -7.33301 -16.5 -15.833 -23.5 -25.5s-10.5 -20.167 -10.5 -31.5c0 -10.667 3.83301 -21.167 11.5 -31.5
s18.167 -21.833 31.5 -34.5s23.666 -23.334 30.999 -32.001zM593.999 965.001h-2h-604v120h606v-120z" />
    <glyph glyph-name="dollar" unicode="$" horiz-adv-x="770" 
d="M778 965l-340.001 0.00292969v-170c48 0 89.667 -5 125 -15s62.833 -20.5 82.5 -31.5l42.5 -23.5l-64.5 -55.5l-64.5 -55.5l-62.5 31.5l-62.5 30.5v-207c20 -2.66699 49.833 -9 89.5 -19s79.334 -27.833 119.001 -53.5s59.5 -59.5 59.5 -101.5
c0 -35.333 -15.167 -71.5 -45.5 -108.5s-67.166 -69.5 -110.499 -97.5s-80 -43.333 -110 -46v-90h-84v80c-114 0 -202 21.667 -264 65l109 111c15.333 -10.667 39.833 -21.167 73.5 -31.5s60.167 -15.5 79.5 -15.5v188c-24 5.33301 -51.333 12.166 -82 20.499
s-59.167 18.833 -85.5 31.5s-49.333 31 -69 55s-29.5 53.333 -29.5 88c0 25.333 10.5 51.166 31.5 77.499s47.333 51.333 79 75s61.667 42.667 90 57s48.166 22.166 59.499 23.499v187h-362l-2 120h798v-120zM351.999 492.003v202.001c-36 0 -72.333 -6.66699 -109 -20
s-55 -32 -55 -56c0 -40 20.5 -69.833 61.5 -89.5s75.167 -31.834 102.5 -36.501zM603.999 195.004c0 36 -11.833 66 -35.5 90s-67.834 39.667 -132.501 47v-187c60 4 102.333 8.83301 127 14.5s38.334 17.5 41.001 35.5z" />
    <glyph glyph-name="ampersand" unicode="&#x26;" horiz-adv-x="823" 
d="M844 1085l-2.00195 -119.995h-201c0 -31.333 -0.166992 -60.666 -0.5 -87.999s-0.833008 -54 -1.5 -80l-117 -76c-10.667 9.33301 -32.667 21.166 -66 35.499s-79.666 21.5 -138.999 21.5c-26.667 0 -52 -6.5 -76 -19.5s-36 -35.167 -36 -66.5
c0 -44.667 24 -77.334 72 -98.001s106.667 -34.5 176 -41.5l174 -17.5l-74 -93c-53.333 0 -108 -7 -164 -21s-102 -33.333 -138 -58s-54 -52 -54 -82c0 -20 13 -44.5 39 -73.5s64 -54 114 -75s107.333 -31.833 172 -32.5c71.333 0 107 15.667 107 47
c0 14.667 -17.667 35.834 -53 63.501s-69.666 41.5 -102.999 41.5h-174l2 27c8 1.33301 13.667 3 17 5s7.66602 5.33301 12.999 10s10.333 8.33398 15 11.001h260c34 0 70.333 6.66699 109 20s66 25.666 82 36.999c-10 -24 -20.5 -43.667 -31.5 -59s-21.5 -27.333 -31.5 -36
s-21.833 -16.667 -35.5 -24s-21.167 -11.333 -22.5 -12c9.33301 -6.66699 14 -21.667 14 -45c0 -25.333 -9.16699 -52.666 -27.5 -81.999s-50.333 -54 -96 -74s-106.834 -30 -183.501 -30c-42.667 0 -90.667 7 -144 21s-99.333 37.167 -138 69.5s-58 73.166 -58 122.499
c0 29.333 9.33301 57 28 83s41.834 49.667 69.501 71s53.834 38.666 78.501 51.999s41 22.333 49 27c5.33301 6.66699 8 11 8 13c0 3.33301 -3.33301 6.66602 -10 9.99902c-32 3.33301 -70.667 17.666 -116 42.999s-68 58.666 -68 99.999
c0 21.333 9.83301 45.666 29.5 72.999s48.667 53.333 87 78s84.5 44.667 138.5 60s115.667 23 185 23v70.5c0 28.333 -0.666992 44.5 -2 48.5h-536v120h860z" />
    <glyph glyph-name="quotesingle" unicode="'" 
d="M250 1497c0 -24 -11.168 -49.667 -33.501 -77s-49.166 -50 -80.499 -68s-59.666 -27 -84.999 -27c7.33301 8.66699 17.666 19.334 30.999 32.001s23.833 24.167 31.5 34.5s11.5 20.833 11.5 31.5c0 16 -4.66699 28.667 -14 38s-27.333 24.666 -54 45.999l105 97
c13.333 0 31.333 -12.167 54 -36.5s34 -47.833 34 -70.5zM300.999 965h-313v120h313v-120z" />
    <glyph glyph-name="parenleft" unicode="(" horiz-adv-x="698" 
d="M803 -242c-37.333 -17.333 -81.002 -26 -131.002 -26c-97.333 0 -195.333 34.333 -294 103s-180.834 172 -246.501 310s-98.5 304 -98.5 498c0 98.667 8 190.167 24 274.5s44.833 166.166 86.5 245.499s101.334 158.333 179.001 237s177.834 157.334 300.501 236.001
c1.33301 -4 2.33301 -6.83301 3 -8.5s1.33398 -3 2.00098 -4s1 -3.5 1 -7.5c0 -10 -24.5 -34.333 -73.5 -73s-96.667 -84.167 -143 -136.5s-88.166 -125.333 -125.499 -219s-56 -206.167 -56 -337.5c1.33301 -121.333 12.166 -230 32.499 -326s53 -187.5 98 -274.5
s103.333 -170.5 175 -250.5s160.5 -160.333 266.5 -241z" />
    <glyph glyph-name="parenright" unicode=")" horiz-adv-x="698" 
d="M680 717c0 -136.667 -14.8311 -258.169 -44.498 -364.502s-87.334 -211.333 -173.001 -315s-209.167 -208.167 -370.5 -313.5c-0.666992 4.66699 -1.83398 8.66699 -3.50098 12s-2.5 6 -2.5 8c0 10 24 34 72 72s95.333 83.333 142 136s88.5 126.167 125.5 220.5
s55.5 206.833 55.5 337.5c0 120.667 -10.333 229.5 -31 326.5s-53.334 188.833 -98.001 275.5s-103 169.834 -175 249.501s-161 159.834 -267 240.501c37.333 17.333 81 26 131 26c70.667 0 143.667 -19.167 219 -57.5s144.833 -96 208.5 -173
s114.834 -172.667 153.501 -287s58 -245.5 58 -393.5z" />
    <glyph glyph-name="comma" unicode="," horiz-adv-x="293" 
d="M301 965h-313v120h313v-120zM250 -20c0 -23.333 -11 -48.665 -33 -75.998s-48.667 -50.333 -80 -69s-60 -28 -86 -28c7.33301 8.66699 17.5 19.167 30.5 31.5s23.5 24.166 31.5 35.499s12 22 12 32c0 15.333 -5 28.166 -15 38.499s-27.667 25.5 -53 45.5l105 96
c13.333 0 31.333 -11.833 54 -35.5s34 -47.167 34 -70.5z" />
    <glyph glyph-name="hyphen" unicode="-" horiz-adv-x="666" 
d="M678 965h-688v120h688v-120zM608 594c-5.33301 -6.66699 -22.333 -18.333 -51 -35l-70 -41h-405l119 76h407z" />
    <glyph glyph-name="period" unicode="." horiz-adv-x="358" 
d="M375 965h-385v120h385v-120zM305 68c-4 -4 -24.168 -18 -60.501 -42s-59.166 -36 -68.499 -36c-4 0 -21.5 12.167 -52.5 36.5s-48.833 38.833 -53.5 43.5c0.666992 0 18.667 14.667 54 44s54 44 56 44c4 0 21 -11.167 51 -33.5z" />
    <glyph glyph-name="slash" unicode="/" horiz-adv-x="1184" 
d="M1141 1636l-959 -1904h-131l959 1904h131z" />
    <glyph glyph-name="zero" unicode="0" horiz-adv-x="1059" 
d="M1075 965l-667 0.00292969v-164c6.66699 6 21.5 13.667 44.5 23s59.167 14 108.5 14c76.667 0 148.5 -15.833 215.5 -47.5s120.167 -76.334 159.5 -134.001s59 -122.834 59 -195.501c0 -37.333 -10.167 -82.5 -30.5 -135.5s-51 -104.333 -92 -154s-93 -90.667 -156 -123
s-136.5 -48.5 -220.5 -48.5s-159 15 -225 45s-117.167 72.833 -153.5 128.5s-54.5 118.5 -54.5 188.5c0 73.333 16.167 139.666 48.5 198.999s86.5 114 162.5 164v240h-284v120h1085v-120zM842 379.003c0 69.333 -17.499 131.5 -52.499 186.5s-83.833 97.667 -146.5 128
s-134.334 45.5 -215.001 45.5c-28.667 0 -60 -13.333 -94 -40s-62.667 -62.167 -86 -106.5s-35 -91.5 -35 -141.5s10.5 -97 31.5 -141s50 -82 87 -114s79.167 -56.667 126.5 -74s96 -26 146 -26c44 0 84.167 11.167 120.5 33.5s65 55 86 98s31.5 93.5 31.5 151.5z" />
    <glyph glyph-name="one" unicode="1" horiz-adv-x="393" 
d="M403 965h-417v120h417v-120zM272 -100l-155 102v709c0 28 -5 54.667 -15 80v30l170 35v-956z" />
    <glyph glyph-name="two" unicode="2" horiz-adv-x="983" 
d="M997 965l-625.999 0.000976562c1.33301 -2.66699 2 -18.167 2 -46.5v-70.5c4.66699 0.666992 12.834 1.5 24.501 2.5s26.5 1.5 44.5 1.5c97.333 0 187 -21.667 269 -65s123 -125.333 123 -246c0 -78.667 -30.5 -151.667 -91.5 -219s-154.167 -137 -279.5 -209
c61.333 0 115.166 1.16699 161.499 3.5s94 9 143 20s90.833 26.833 125.5 47.5l-86 -184h-725l41 90c77.333 5.33301 157.833 23.666 241.5 54.999s153.667 75.5 210 132.5s84.5 123.5 84.5 199.5s-33 137.667 -99 185s-153.667 71 -263 71c-59.333 0 -125 -8 -197 -24
c19.333 22.667 42.166 42 68.499 58s46.5 27.333 60.5 34v164h-241v120h1009v-120z" />
    <glyph glyph-name="three" unicode="3" horiz-adv-x="829" 
d="M846 965h-477v-115c18.667 5.33301 45.334 8 80.001 8c41.333 0 81 -5.16699 119 -15.5s70.333 -29 97 -56s40 -63.167 40 -108.5c0 -42 -12.333 -79.167 -37 -111.5s-66.334 -63.5 -125.001 -93.5c66 -26 117.333 -54.333 154 -85s55 -73.334 55 -128.001
c0 -44.667 -16.5 -86.834 -49.5 -126.501s-81.667 -71.834 -146 -96.501s-141.166 -37 -230.499 -37c-32 0 -72.833 5.66699 -122.5 17s-88.834 29 -117.501 53l164 129c9.33301 -16 31.666 -35.833 66.999 -59.5s87.333 -35.5 156 -35.5c43.333 0 73.333 5.16699 90 15.5
s25 33.833 25 70.5c-2 68.667 -43.667 117.334 -125 146.001s-168.666 43 -261.999 43c-31.333 0 -52 -0.666992 -62 -2l164 112c18 4.66699 40 7 66 7s47.167 -1.16699 63.5 -3.5s28.5 -4.16602 36.5 -5.49902c35.333 38.667 53 77 53 115c0 38.667 -16 71.834 -48 99.501
s-62.333 43.167 -91 46.5c-19.333 2.66699 -47.333 4 -84 4c-64.667 -2 -124.667 -11 -180 -27l38.5 39c9.66699 10 19.167 18.5 28.5 25.5s25 15.5 47 25.5v150h-243v120h856v-120z" />
    <glyph glyph-name="four" unicode="4" horiz-adv-x="991" 
d="M997 965l-231 -0.000976562v-607h168l-76 -98h-94v-260h-176v264h-522l152.5 158l228.5 231c83.333 82.667 143.333 137.334 180 164.001v148h-641v120h1011v-120zM590 357.999c0 25.333 -0.166016 60.668 -0.499023 106.001l-1 135.5
c-0.333008 45 -0.5 80.167 -0.5 105.5c-0.666992 2.66699 -2.5 6 -5.5 10s-6.16699 6 -9.5 6c-2.66699 0 -5.33398 -1.33301 -8.00098 -4c-185.333 -180.667 -295 -300.334 -329 -359.001h354z" />
    <glyph glyph-name="five" unicode="5" horiz-adv-x="836" 
d="M850 965l-191.003 0.000976562v-131l70 -5l-76 -147c-103.333 22 -250.666 33 -441.999 33v-211c18.667 6.66699 49 14.834 91 24.501s87.333 14.5 136 14.5c32 0 69.333 -4.66699 112 -14s81.334 -22.833 116.001 -40.5s63.334 -40.334 86.001 -68.001
s34 -59.834 34 -96.501c0 -45.333 -17.333 -93.5 -52 -144.5s-87.5 -93.667 -158.5 -128s-156.5 -51.5 -256.5 -51.5c-14 -0 -44.333 3.83301 -91 11.5s-83 14.167 -109 19.5l164 139c25.333 -17.333 60.666 -31.166 105.999 -41.499s85.666 -15.5 120.999 -15.5
c44.667 0 76.334 7.66699 95.001 23s28 45.666 28 90.999c0 75.333 -34.667 129.333 -104 162s-142.666 49 -219.999 49c-75.333 0 -138 -15 -188 -45v438h418v134h-555v120h866v-120z" />
    <glyph glyph-name="six" unicode="6" horiz-adv-x="920" 
d="M928 965l-579.998 -0.000976562v-160c12 8 33.833 18.167 65.5 30.5s72.167 18.5 121.5 18.5c52.667 0 98.5 -5.5 137.5 -16.5s71.167 -24.333 96.5 -40s49 -33.834 71 -54.501l-158 -88c-3.33301 7.33301 -11.833 18.166 -25.5 32.499s-39.167 28.666 -76.5 42.999
s-86 21.5 -146 21.5c-14.667 0 -40 -1.33301 -76 -4c-16 -2 -34.667 -18 -56 -48s-40.333 -70.667 -57 -122s-25.334 -108.666 -26.001 -171.999c18 24.667 53.667 55.667 107 93s123 56 209 56c51.333 0 101.333 -9.66699 150 -29s89 -46.333 121 -81s48 -75.667 48 -123
c0 -53.333 -17.5 -104.666 -52.5 -153.999s-86.333 -89.666 -154 -120.999s-146.834 -47 -237.501 -47c-98 0 -172.167 21.667 -222.5 65s-82.166 92.833 -95.499 148.5s-20 112.834 -20 171.501c0 68 10.667 127 32 177s43.166 88 65.499 114s38.833 43 49.5 51l2 238h-239
v120h946v-120zM717.002 239.999c0 67.333 -28.833 117.166 -86.5 149.499s-120.5 48.5 -188.5 48.5c-59.333 0 -107.5 -8.33301 -144.5 -25s-61.833 -30.667 -74.5 -42c0 -60 19.5 -110.667 58.5 -152s84.5 -72.166 136.5 -92.499s95.667 -30.5 131 -30.5
c58 0 100.5 13 127.5 39s40.5 61 40.5 105z" />
    <glyph glyph-name="seven" unicode="7" horiz-adv-x="829" 
d="M842 965h-582.001v-134l514 3l-383 -834h-168c6 11.333 24.667 37.833 56 79.5s65 89.834 101 144.501s74.333 124.334 115 209.001s78.334 180.667 113.001 288c-73.333 0 -145.5 -5.83301 -216.5 -17.5s-135.5 -25.334 -193.5 -41.001s-100 -28.834 -126 -39.501
l55 217v125h-137v120h852v-120z" />
    <glyph glyph-name="eight" unicode="8" horiz-adv-x="795" 
d="M803 965l-489.997 -0.00195312v-142c7.33301 4 22 9.16699 44 15.5s54.667 9.5 98 9.5c38 0 74.833 -3.83301 110.5 -11.5s66.667 -22.167 93 -43.5s39.5 -50.666 39.5 -87.999c0 -66 -22 -119.333 -66 -160s-80.667 -68 -110 -82c15.333 -2 38.833 -8 70.5 -18
s63 -27.667 94 -53s46.5 -59 46.5 -101c0 -57.333 -22.833 -108.166 -68.5 -152.499s-101.334 -78.5 -167.001 -102.5s-127.834 -36 -186.501 -36c-62 -0 -120.833 16.333 -176.5 49s-83.5 75 -83.5 127c0 36.667 14.5 70.834 43.5 102.501s70.5 65.167 124.5 100.5
c-10 6.66699 -28.5 18.167 -55.5 34.5s-49 32.5 -66 48.5s-30.333 34.167 -40 54.5s-14.5 44.166 -14.5 71.499c0 38 17.667 74.5 53 109.5s64.666 60.5 87.999 76.5v191h-194v120h813v-120zM539.003 626.998c0 26.667 -10.999 48.667 -32.999 66s-49 30 -81 38
s-63.667 12 -95 12c-42 0 -78.167 -6.83301 -108.5 -20.5s-45.5 -36.167 -45.5 -67.5c0 -38 19.667 -70.667 59 -98s82.5 -48.833 129.5 -64.5s74.167 -23.5 81.5 -23.5c14.667 0 29.167 9.5 43.5 28.5s26.166 41 35.499 66s14 46.167 14 63.5zM584.004 196.998
c0 27.333 -12.332 51.6689 -36.999 73.002s-53 38.166 -85 50.499s-65.5 22.333 -100.5 30s-59.833 11.5 -74.5 11.5c-18.667 0 -38.334 -10.333 -59.001 -31s-31 -41.667 -31 -63c0 -46.667 26.667 -86.334 80 -119.001s105 -49 155 -49c101.333 0 152 32.333 152 97z" />
    <glyph glyph-name="nine" unicode="9" horiz-adv-x="930" 
d="M934 965h-594.002v-168c60 27.333 113.333 41 160 41c118 0 205.833 -31.167 263.5 -93.5s86.5 -154.833 86.5 -277.5c0 -90 -22.167 -170.833 -66.5 -242.5s-102.333 -127 -174 -166s-147.167 -58.5 -226.5 -58.5c-96.667 0 -193.667 30 -291 90l137 94
c24.667 -12.667 63.834 -28.834 117.501 -48.501s104.834 -29.5 153.501 -29.5c78 0 131.167 34.5 159.5 103.5s42.5 145.833 42.5 230.5c-18 -24 -53 -54.167 -105 -90.5s-118.667 -54.5 -200 -54.5c-94.667 0 -172 21.333 -232 64s-90.333 101.334 -91 176.001
c0 63.333 43 126 129 188v242h-215v120h946v-120zM693.998 489c0 36 -14.8359 73.167 -44.5029 111.5s-68.667 70 -117 95s-96.166 37.5 -143.499 37.5c-126.667 0 -190 -39 -190 -117c0 -40.667 13.833 -77.5 41.5 -110.5s62.334 -58.667 104.001 -77
s83.167 -27.5 124.5 -27.5c70.667 0 125.834 10.333 165.501 31s59.5 39.667 59.5 57z" />
    <glyph glyph-name="colon" unicode=":" horiz-adv-x="358" 
d="M375 965h-385v120h385v-120zM305 694c-2 -4 -21.668 -18 -59.001 -42s-60.666 -36 -69.999 -36c-4 0 -21.167 11.5 -51.5 34.5s-48.5 38.167 -54.5 45.5c0.666992 0 18.667 14.667 54 44s54 44 56 44c4 0 21 -11.167 51 -33.5zM304.999 121
c-4 -4 -24.168 -18 -60.501 -42s-59.166 -36 -68.499 -36c-5.33301 0 -22.333 11.333 -51 34s-47 38 -55 46c0.666992 0 18.667 14.667 54 44s54 44 56 44c4 0 21 -11.167 51 -33.5z" />
    <glyph glyph-name="semicolon" unicode=";" horiz-adv-x="358" 
d="M375 965h-385v120h385v-120zM305 694c-2 -4 -21.668 -18 -59.001 -42s-60.666 -36 -69.999 -36c-4 0 -21.167 11.5 -51.5 34.5s-48.5 38.167 -54.5 45.5c0.666992 0 18.667 14.667 54 44s54 44 56 44c4 0 21 -11.167 51 -33.5zM249.999 133
c0 -24 -11.1709 -49.6641 -33.5039 -76.9971s-49.166 -50 -80.499 -68s-59.666 -27 -84.999 -27c2.66699 3.33301 11.834 12.5 27.501 27.5s27.334 27.667 35.001 38s11.5 21.166 11.5 32.499c0 16 -4.66699 28.667 -14 38s-27.333 24.666 -54 45.999l105 95
c13.333 0 31.333 -11.833 54 -35.5s34 -46.834 34 -69.501z" />
    <glyph glyph-name="equal" unicode="=" horiz-adv-x="666" 
d="M678 965h-688v120h688v-120zM608 713c-4.66699 -5.33301 -21.5 -16.833 -50.5 -34.5s-52.5 -31.5 -70.5 -41.5h-405l119 76h407zM608 553c-5.33301 -6.66699 -22.333 -18.333 -51 -35l-70 -41h-405l119 76h407z" />
    <glyph glyph-name="question" unicode="?" horiz-adv-x="782" 
d="M795 965l-809 0.000976562c-0.666992 0 -1 19.167 -1 57.5s-0.333008 59.166 -1 62.499h811v-120zM727 639.001c0 -39.333 -18.167 -77.001 -54.5 -113.001s-81.5 -71.833 -135.5 -107.5s-82.667 -56.5 -86 -62.5c-8.66699 -17.333 -13 -53.333 -13 -108l-162 -47
c-14.667 5.33301 -22 27.666 -22 66.999c0 26.667 11.333 51.334 34 74.001s56.667 51 102 85s79.333 64.167 102 90.5s34 56.5 34 90.5c0 54.667 -26.667 90.834 -80 108.501s-103 26.5 -149 26.5c-52.667 0 -92.167 -3.33301 -118.5 -10s-69.5 -25 -129.5 -55
c32 42 79.167 79.833 141.5 113.5s131.833 50.5 208.5 50.5c66 0 137.167 -18.833 213.5 -56.5s114.5 -86.5 114.5 -146.5zM492 76c-19.333 -15.333 -42.832 -31.832 -70.499 -49.499s-45.167 -26.5 -52.5 -26.5c-6 0 -13.333 2.16699 -22 6.5
s-22.834 12.666 -42.501 24.999s-40.5 24.5 -62.5 36.5c14 16.667 36.5 36.5 67.5 59.5s50.167 34.5 57.5 34.5c2 0 43.667 -28.667 125 -86z" />
    <glyph glyph-name="A" unicode="A" horiz-adv-x="973" 
d="M977 965l-666.002 0.00195312v-160c3.33301 0 6 -1.33301 8 -4s4.33301 -4 7 -4c-1.33301 0 12.334 3.83301 41.001 11.5s61.667 14.834 99 21.501s73.666 10 108.999 10c80 0 143 -11 189 -33s79.167 -53 99.5 -93s32.666 -84.833 36.999 -134.5
s6.5 -117.834 6.5 -204.501v-385c-51.333 20 -87.833 34.667 -109.5 44l-49.5 21c0 21.333 -4.33301 35 -13 41l-74 -41.5c-27.333 -15 -63 -28.167 -107 -39.5s-96.333 -17 -157 -17c-58 0 -114.667 10.667 -170 32s-100.166 51.833 -134.499 91.5s-51.5 84.5 -51.5 134.5
c0 46.667 21.667 95.5 65 146.5s101.333 93.333 174 127s152 50.5 238 50.5c46.667 0 91.167 -6.83301 133.5 -20.5s74.5 -28.834 96.5 -45.501v92c-28 36 -54.667 60.333 -80 73s-65 19 -119 19c-70 -2.66699 -125.167 -8.5 -165.5 -17.5s-83.666 -23 -129.999 -42
s-85.166 -33.833 -116.499 -44.5v74l20 17c8.66699 7.33301 14.5 12.666 17.5 15.999s4.83301 5.33301 5.5 6v258h-205v120h1002v-120zM747.998 332.002c0 30.667 -34.501 56.333 -103.501 77s-117.833 31 -146.5 31c-72.667 0 -138.667 -15.167 -198 -45.5
s-106 -65.833 -140 -106.5s-51 -74 -51 -100c8 -27.333 28.333 -46.333 61 -57s67.334 -16 104.001 -16c68 0 130.833 9 188.5 27s108 40 151 66s76.167 51 99.5 75s35 40.333 35 49z" />
    <glyph glyph-name="B" unicode="B" horiz-adv-x="1087" 
d="M1096 965l-760 0.00195312v-373c13.333 16.667 36.5 42 69.5 76s75.667 68 128 102s104.5 51 156.5 51c54 0 103.667 -11.167 149 -33.5s84.166 -51.666 116.499 -87.999s57 -75.833 74 -118.5s25.5 -83.334 25.5 -122.001c0 -57.333 -15 -113.833 -45 -169.5
s-68.5 -105 -115.5 -148s-96 -77.333 -147 -103s-94.833 -38.5 -131.5 -38.5c-46 0 -87.5 13.833 -124.5 41.5s-91.5 78.167 -163.5 151.5v-205l-174 75v902h-164v120h164c0 86 -13.167 169.833 -39.5 251.5s-57.5 153.5 -93.5 215.5s-73.167 117 -111.5 165
s-68.166 81.333 -89.499 100h219c26 -22 52.667 -47.833 80 -77.5s58.333 -74.834 93 -135.501s64 -134.334 88 -221.001s36 -186 36 -298h760v-120zM944 356.002c0 27.333 -9.16699 59.168 -27.5 95.501s-43.833 71.5 -76.5 105.5s-72.5 62.667 -119.5 86
s-96.833 35 -149.5 35c-32 0 -64.5 -9.66699 -97.5 -29s-60.5 -41.5 -82.5 -66.5s-33 -43.833 -33 -56.5c0 -46 20.167 -102.833 60.5 -170.5s91.5 -126.5 153.5 -176.5s122.667 -75 182 -75c34 0 65.5 12.667 94.5 38s52.167 57.666 69.5 96.999s26 78.333 26 117z" />
    <glyph glyph-name="C" unicode="C" horiz-adv-x="1044" 
d="M1059 965l-209 -0.00390625v-279c43.333 -40 71.666 -68.5 84.999 -85.5s28.666 -47.833 45.999 -92.5h-133c0 76.667 -21.667 134.334 -65 173.001s-99 58 -167 58c-78.667 0 -150.167 -21.333 -214.5 -64s-114.833 -96.5 -151.5 -161.5s-55 -127.5 -55 -187.5
c0 -37.333 8.5 -72.166 25.5 -104.499s44.667 -58.5 83 -78.5s87.5 -30 147.5 -30c76.667 0 135.834 12.833 177.501 38.5s68.5 46.834 80.5 63.501h213c-8 -32.667 -30.333 -65.667 -67 -99s-80.834 -61 -132.501 -83s-99.167 -33 -142.5 -33c-84 0 -169 23.5 -255 70.5
s-156.167 106.833 -210.5 179.5s-81.5 144.334 -81.5 215.001c0 40 18.167 91.833 54.5 155.5s87.5 119.167 153.5 166.5s141.333 71 226 71c54.667 0 101.334 -6.83301 140.001 -20.5s66.334 -26.5 83.001 -38.5v166h-706v120h1075v-120z" />
    <glyph glyph-name="D" unicode="D" horiz-adv-x="1135" 
d="M1151 965l-131 -0.00195312l-2 -977l-182 78v143c-53.333 -68.667 -104.5 -120.667 -153.5 -156s-103.833 -53 -164.5 -53c-58.667 0 -124.334 23.333 -197.001 70s-134.5 106.334 -185.5 179.001s-76.5 145.334 -76.5 218.001
c1.33301 27.333 10.833 61.166 28.5 101.499s43.667 81.333 78 123s75.833 76.167 124.5 103.5s103 41 163 41c69.333 0 129 -20.833 179 -62.5s118 -109.167 204 -202.5v394h-856v120h856c0 70 -1.83301 127.833 -5.5 173.5s-13.667 95.667 -30 150
s-43.166 115.833 -80.499 184.5s-87.666 145.334 -150.999 230.001c-2.66699 0 -4 5.33301 -4 16c0 8 2 13.333 6 16h191c63.333 -70 122.166 -163 176.499 -279s81.5 -279.667 81.5 -491h131v-120zM788 509.998c0 42 -23.998 83.168 -71.998 123.501s-105 60.5 -171 60.5
c-24.667 0 -65.334 -13.333 -122.001 -40s-108.167 -66 -154.5 -118s-69.5 -114 -69.5 -186c0 -68.667 19.333 -124.667 58 -168s82.667 -65 132 -65c57.333 0 117.166 24.167 179.499 72.5s114.5 104.166 156.5 167.499s63 114.333 63 153z" />
    <glyph glyph-name="E" unicode="E" horiz-adv-x="1040" 
d="M1053 965l-272.999 0.00292969v-197c18 -4 33 -8.83301 45 -14.5s19.667 -9.83398 23 -12.501v-118c-79.333 27.333 -162 41 -248 41c-58.667 0 -122.334 -12 -191.001 -36s-104 -61.333 -106 -112c0 -53.333 75.667 -80 227 -80c12.667 0 34.334 0.833008 65.001 2.5
s50.667 2.83398 60 3.50098v-92c-48 -1.33301 -103.333 -3.83301 -166 -7.5s-118.834 -15.834 -168.501 -36.501s-74.5 -54.334 -74.5 -101.001c0 -38.667 22.833 -70.167 68.5 -94.5s97.167 -36.5 154.5 -36.5c115.333 0 216.833 26.5 304.5 79.5s161.5 122.5 221.5 208.5
v-253c-70.667 -44.667 -139 -74 -205 -88s-133.333 -21 -202 -21c-67.333 0 -143.166 10.167 -227.499 30.5s-156.666 49.666 -216.999 87.999s-90.5 82.833 -90.5 133.5c0 51.333 19.5 92 58.5 122s83.833 57 134.5 81l-66.5 38c-17.667 10 -31.834 22 -42.501 36
s-16 32.333 -16 55c0 44 17.833 80.833 53.5 110.5s80.167 52.167 133.5 67.5s107.666 26 162.999 32s107.333 9 156 9v162h-641v120h1067v-120z" />
    <glyph glyph-name="F" unicode="F" horiz-adv-x="647" 
d="M664 965l-331.999 -0.00292969v-973c-6.66699 0 -64.667 26 -174 78v895h-170v120h162c0 18 -14.833 46.167 -44.5 84.5s-51.334 69 -65.001 92s-20.5 53.167 -20.5 90.5c0 29.333 11.833 64.333 35.5 105s57.834 75.334 102.501 104.001s97 43 157 43
s113 -11.333 159 -34s82 -53.834 108 -93.501s41.667 -85.5 47 -137.5c-30.667 47.333 -65.334 82.166 -104.001 104.499s-77.667 33.5 -117 33.5c-33.333 0 -65 -7.66699 -95 -23s-53.833 -36.166 -71.5 -62.499s-26.5 -53.833 -26.5 -82.5
c0 -18 10.167 -43.167 30.5 -75.5s46.5 -63.166 78.5 -92.499c3.33301 -9.33301 5.5 -19.666 6.5 -30.999s1.5 -19.666 1.5 -24.999h332v-120z" />
    <glyph glyph-name="G" unicode="G" horiz-adv-x="997" 
d="M1040 -162c0 -73.333 -16.833 -122.67 -50.5 -148.003s-76.834 -38 -129.501 -38c-39.333 0 -73.833 5.66699 -103.5 17s-72.5 31 -128.5 59s-105 49 -147 63s-87 21 -135 21c-72 0 -149.5 -16.667 -232.5 -50s-159.333 -81 -229 -143s-124.167 -135 -163.5 -219
c-2.66699 10.667 -4 27.667 -4 51c0 67.333 21 140.833 63 220.5s102.167 147.167 180.5 202.5s167.833 83 268.5 83c74.667 0 133.167 -10.833 175.5 -32.5s96.833 -55.167 163.5 -100.5s117.667 -68 153 -68c40.667 0 80 10.167 118 30.5s68.5 46.5 91.5 78.5
s34.5 62.667 34.5 92c0 32 -7.16699 62.333 -21.5 91s-34.666 51.667 -60.999 69s-56.833 26 -91.5 26c-28.667 0 -61.834 -6.33301 -99.501 -19s-84 -30.667 -139 -54s-100.833 -41.166 -137.5 -53.499s-69.334 -18.5 -98.001 -18.5c-31.333 0 -69.5 14.5 -114.5 43.5
s-84.5 64.167 -118.5 105.5s-51 78.333 -51 111c0 30 17.833 60.333 53.5 91s73.834 48 114.501 52l2 11l-49 69c-12.667 18 -22.667 36.667 -30 56s-11 42.333 -11 69c0.666992 84 36.834 143.333 108.501 178s160.834 52 267.501 52c3.33301 0.666992 6.5 3.16699 9.5 7.5
s4.83301 7.83301 5.5 10.5v111h-518v120h1028v-120h-355v-168c0.666992 -8 2.83398 -18.667 6.50098 -32s10.5 -22 20.5 -26c12 0 26 10.333 42 31s29 36 39 46s28 16.667 54 20c20 0 40.667 -6.5 62 -19.5s40.666 -30.5 57.999 -52.5s28.666 -44 33.999 -66l-105 -120
c-1.33301 30.667 -8.83301 60.834 -22.5 90.501s-32.5 44.5 -56.5 44.5c-6 0 -16.167 -4 -30.5 -12s-21.5 -17 -21.5 -27c0 -0.666992 3.66699 -8 11 -22s13.5 -29 18.5 -45s7.5 -35.333 7.5 -58c0 -88.667 -30.333 -146.667 -91 -174s-143.667 -41 -249 -41
c-72 0 -130.833 -9.16699 -176.5 -27.5s-77.834 -38.833 -96.501 -61.5s-28 -41.667 -28 -57c2 -26 14.5 -45 37.5 -57s40.5 -18 52.5 -18c28 0 56.833 6 86.5 18s73.834 32.333 132.501 61s112.667 51.167 162 67.5s98 25.5 146 27.5c75.333 0 134.5 -30.667 177.5 -92
s72.167 -127.666 87.5 -198.999s23 -124 23 -158zM651 640.996c0 80.667 -43.001 121.003 -129.001 121.003c-49.333 0 -96.666 -12.833 -141.999 -38.5s-82.5 -58.334 -111.5 -98.001s-43.5 -78.167 -43.5 -115.5c0 -24.667 12 -52.834 36 -84.501
s58.667 -47.834 104 -48.501c29.333 0 67.333 11.167 114 33.5s87 53.5 121 93.5s51 85.667 51 137z" />
    <glyph glyph-name="H" unicode="H" horiz-adv-x="1087" 
d="M1098 965l-806.997 0.000976562v-301l50 53c18.667 19.333 40 37.666 64 54.999s53.333 32.333 88 45s73.667 19 117 19c82 0 154.5 -22.5 217.5 -67.5s112.167 -102.5 147.5 -172.5s53 -139 53 -207c0 -70.667 -17 -136 -51 -196s-68 -106.667 -102 -140
s-59.333 -56.333 -76 -69l-164 98c9.33301 13.333 29.333 35.666 60 66.999s57.667 62.333 81 93s44 69 62 115s27.333 97.667 28 155c0 70 -16.667 126.833 -50 170.5s-79.333 65.5 -138 65.5c-54.667 -2 -112.834 -21.667 -174.501 -59s-113.5 -84 -155.5 -140
s-63 -110 -63 -162v-397l-187 100v875h-110v120h110c0 108 -15.333 204.833 -46 290.5s-66.334 156.167 -107.001 211.5s-75.834 96.333 -105.501 123s-51.167 44.334 -64.5 53.001l202 2c48.667 -26.667 97.5 -75.5 146.5 -146.5s89.167 -154.667 120.5 -251
s47 -190.5 47 -282.5h807v-120z" />
    <glyph glyph-name="I" unicode="I" horiz-adv-x="389" 
d="M338 1190c-2.66699 -2.66699 -10.335 -4.00098 -23.002 -4.00098c-10.667 0 -20 1.33301 -28 4c-48 94 -78.667 151.333 -92 172c-14.667 20 -33.167 33 -55.5 39l-63 17.5c-19.667 5.66699 -35.5 18.834 -47.5 39.501c-2.66699 4 -7.66699 19.5 -15 46.5
s-21.666 58.5 -42.999 94.5v23h39c78 -24 133.333 -45.833 166 -65.5s53.5 -38.667 62.5 -57s21.833 -56 38.5 -113s36.334 -108.167 59.001 -153.5c0.666992 -6 1.16699 -11.5 1.5 -16.5s0.5 -13.833 0.5 -26.5zM396.999 964.999h-407v120h407v-120zM282.999 -23.001
l-168 93v772h168v-865z" />
    <glyph glyph-name="J" unicode="J" horiz-adv-x="500" 
d="M406 1190c-4 -2.66699 -11.668 -4.00293 -23.001 -4.00293c-10 0 -20.333 1.33301 -31 4c-53.333 104 -84 161.333 -92 172c-13.333 19.333 -31.666 32.333 -54.999 39l-64 18c-19.333 5.33301 -35 18.333 -47 39c-3.33301 6.66699 -6.33301 16.834 -9 30.501
s-8.5 30.834 -17.5 51.501s-19.167 40.334 -30.5 59.001v23h41c76.667 -23.333 131.334 -44.833 164.001 -64.5s54.167 -40 64.5 -61s23.166 -58.667 38.499 -113s34 -104.5 56 -150.5c3.33301 -20 5 -34.333 5 -43zM546.999 964.997h-602v120h602v-120zM409.999 -385.003
c0 -27.333 -11.666 -56.833 -34.999 -88.5s-55.5 -58.667 -96.5 -81s-84.833 -33.5 -131.5 -33.5c-53.333 0 -108.5 19.667 -165.5 59s-95.833 82 -116.5 128l155 120c4.66699 -64 17.667 -122.333 39 -175s55.666 -79 102.999 -79c21.333 0 38.5 8 51.5 24s19.5 36 19.5 60
v1293h177v-1227z" />
    <glyph glyph-name="K" unicode="K" horiz-adv-x="920" 
d="M932 965l-656.002 -0.00195312v-258c17.333 8 44.5 22.333 81.5 43s74 36 111 46s81.5 15 133.5 15c66 0 130 -20.167 192 -60.5s93 -95.833 93 -166.5c0 -46.667 -15.667 -87.667 -47 -123s-68.833 -61.666 -112.5 -78.999s-81.5 -26 -113.5 -26l232 -282l-127 -92
l-357 424l66 137c35.333 -10 72.333 -15 111 -15c59.333 0 107.5 14.667 144.5 44s55.5 70 55.5 122c0 53.333 -38 80 -114 80c-50 0 -102.333 -22.167 -157 -66.5s-100.667 -96.5 -138 -156.5s-56 -109.333 -56 -148v-419l-172 77v904h-127v120h121
c0 106 -10.167 199 -30.5 279s-44.666 146 -72.999 198s-60.166 101 -95.499 147s-54.333 71.667 -57 77h203c9.33301 -8.66699 25 -27.167 47 -55.5s46.833 -70.166 74.5 -125.499s52.5 -128.5 74.5 -219.5s33 -191.167 33 -300.5h660v-120z" />
    <glyph glyph-name="L" unicode="L" horiz-adv-x="426" 
d="M442 965h-106v120h106v-120zM100 965h-114v120h114v-120zM303 1206l-0.000976562 -1231c-2.66699 0 -11.5 3.83301 -26.5 11.5l-51.5 26.5l-60 30.5c-20.667 10.333 -32 15.5 -34 15.5v1145c-3.33301 79.333 -17 153.666 -41 222.999s-50.833 127 -80.5 173
s-61.667 88.333 -96 127l-63.5 71h213c56.667 -56.667 103.334 -121.5 140.001 -194.5s62.5 -144 77.5 -213s22.5 -130.5 22.5 -184.5z" />
    <glyph glyph-name="M" unicode="M" horiz-adv-x="1511" 
d="M1524 965l-330 0.00390625l2 -140c88.667 -32.667 153.834 -75.834 195.501 -129.501s62.5 -129.834 62.5 -228.501c0 -74 -16.5 -141.667 -49.5 -203s-71.667 -111.833 -116 -151.5s-86.5 -71 -126.5 -94s-62.667 -34.5 -68 -34.5c-10 0 -37.5 22 -82.5 66l-110.5 110
c62.667 3.33301 132.334 24 209.001 62s142.334 87.167 197.001 147.5s82 124.166 82 191.499c0 34.667 -10.333 63.5 -31 86.5s-47.5 40.333 -80.5 52s-68.5 17.5 -106.5 17.5c-115.333 -6.66699 -204.833 -43.834 -268.5 -111.501s-106.5 -156.167 -128.5 -265.5
c-4.66699 1.33301 -32.334 12.5 -83.001 33.5l-122 50.5c0 32.667 6.5 65.334 19.5 98.001s28 62.667 45 90s25.5 41.666 25.5 42.999c0 18 -16.333 30.333 -49 37s-61.334 10 -86.001 10c-54.667 0 -106.167 -14.333 -154.5 -43s-86.5 -65.167 -114.5 -109.5
s-42 -88.833 -42 -133.5c0 -50 13.667 -98.333 41 -145s56.666 -86.834 87.999 -120.501s70.166 -71 116.499 -112s70.833 -64.833 73.5 -71.5c-42.667 14.667 -92.834 36.334 -150.501 65.001s-115.167 64.834 -172.5 108.501s-104.833 93.167 -142.5 148.5
s-56.5 114.666 -56.5 177.999c0 72.667 20.667 137.5 62 194.5s94.5 101.333 159.5 133s131.833 47.5 200.5 47.5c54.667 0 103.334 -7.83301 146.001 -23.5s81.834 -34.167 117.501 -55.5s55.167 -32 58.5 -32c0.666992 0 19 8.33301 55 25s73.167 32 111.5 46
s70.833 23 97.5 27l2 136h-1040v120h1544v-120z" />
    <glyph glyph-name="N" unicode="N" horiz-adv-x="1049" 
d="M1065 965h-1075v120h1075v-120zM850 526c0 160 -75.6689 240.003 -227.002 240.003c-44 0 -89.167 -13 -135.5 -39s-87.666 -62 -123.999 -108s-65.666 -100.667 -87.999 -164s-33.5 -129 -33.5 -197v-291l-164 86v752h172v-119l69.5 54
c32.333 25.333 71.666 48.666 117.999 69.999s96.5 32 150.5 32c52.667 0 103.334 -11.333 152.001 -34s92 -54.334 130 -95.001s68 -88.5 90 -143.5s33 -113.833 33 -176.5c0 -70.667 -15.333 -142.834 -46 -216.501s-79.334 -146.834 -146.001 -219.501l-193 121
c12 16 34.333 39.333 67 70s61.334 61.834 86.001 93.501s45.667 71 63 118s26 102.5 26 166.5z" />
    <glyph glyph-name="O" unicode="O" horiz-adv-x="1049" 
d="M1067 965l-225.001 0.000976562v-275c0 -6 9.5 -17.833 28.5 -35.5s36 -35.5 51 -53.5s29 -44.833 42 -80.5s19.5 -79.5 19.5 -131.5c0 -70.667 -18 -136.334 -54 -197.001s-85.667 -108.167 -149 -142.5s-133 -51.5 -209 -51.5c-50 0 -105.333 12.833 -166 38.5
s-118.167 61.167 -172.5 106.5s-98.166 96.5 -131.499 153.5s-50 115.833 -50 176.5c0 44 16 94.667 48 152s78.167 106.833 138.5 148.5s132.833 62.5 217.5 62.5c46.667 0 115.667 -12.333 207 -37c4 0 6 2.66699 6 8v158h-686v120h1085v-120zM835.999 522.001
c0 50.667 -12.832 91.666 -38.499 122.999s-54.334 53.166 -86.001 65.499s-57.834 18.5 -78.501 18.5c-32 0 -72.5 -9.16699 -121.5 -27.5s-97.5 -46.166 -145.5 -83.499s-87.833 -84.166 -119.5 -140.499s-47.5 -119.833 -47.5 -190.5c0 -29.333 10 -58 30 -86
s46 -50.833 78 -68.5s65 -26.5 99 -26.5s76.333 10.667 127 32s98.834 50.5 144.501 87.5s83.5 80.833 113.5 131.5s45 105.667 45 165z" />
    <glyph glyph-name="P" unicode="P" horiz-adv-x="1116" 
d="M1135 965h-1147v120h1147v-120zM1055 412c0 -72.667 -22.002 -141.169 -66.002 -205.502s-98.5 -115.166 -163.5 -152.499s-125.833 -56 -182.5 -56c-51.333 0 -106.5 21 -165.5 63s-131.5 103.667 -217.5 185v-848l-160 84v1323h156v-244l60.5 64
c28.333 30 60.833 61.5 97.5 94.5s77 62.333 121 88s85.333 38.5 124 38.5c36.667 0 77.834 -12.5 123.501 -37.5s89.334 -58.167 131.001 -99.5s75.667 -88.166 102 -140.499s39.5 -104.5 39.5 -156.5zM955.998 527.998c0 16 -6.49805 38.3301 -19.498 66.9971
s-32.833 54.834 -59.5 78.501s-59.667 35.5 -99 35.5c-44 0 -93.333 -14.667 -148 -44s-106.667 -66.166 -156 -110.499s-89.833 -89.666 -121.5 -135.999s-47.5 -84.166 -47.5 -113.499c0 -20.667 11.667 -41.834 35 -63.501s53.333 -40 90 -55s73 -22.5 109 -22.5
c60 0 116.167 12.833 168.5 38.5s96.666 57.5 132.999 95.5s64.666 77.833 84.999 119.5s30.5 78.5 30.5 110.5z" />
    <glyph glyph-name="Q" unicode="Q" horiz-adv-x="1151" 
d="M1167 1085l-2 -120h-1177v120h1179zM1059 -535l-180 -94.001v889c-39.333 -44 -100 -99 -182 -165s-160.667 -99 -236 -99c-32 0 -69.5 10.333 -112.5 31s-85 50.834 -126 90.501s-74.5 86.167 -100.5 139.5s-40 112.333 -42 177c0 45.333 18 101.5 54 168.5
s81.5 124.667 136.5 173s107.5 72.5 157.5 72.5c29.333 0 70 -9.83301 122 -29.5s108 -51 168 -94s113.667 -96.833 161 -161.5v215h180v-1313zM834 294.999c0 56.667 -30.165 115.668 -90.498 177.001s-129 113.666 -206 156.999s-129.833 65 -158.5 65
c-54 0 -102 -17 -144 -51s-63 -68.667 -63 -104c0 -30.667 14.667 -76.667 44 -138s74.166 -116.166 134.499 -164.499s134.5 -72.5 222.5 -72.5c49.333 0 93.666 7.83301 132.999 23.5s70.5 34.167 93.5 55.5s34.5 38.666 34.5 51.999z" />
    <glyph glyph-name="R" unicode="R" horiz-adv-x="983" 
d="M1001 965h-1011v120h1011v-120zM918 606c0 -43.333 -24.5 -87.999 -73.5 -133.999s-90.167 -77 -123.5 -93l-150 170c56 5.33301 103.167 25.5 141.5 60.5s57.5 69.5 57.5 103.5c0 14 -11 30.833 -33 50.5s-50.667 29.5 -86 29.5c-43.333 0 -92.333 -20 -147 -60
s-101.167 -91.667 -139.5 -155s-57.5 -127 -57.5 -191v-424l-192 100v740h194v-76c5.33301 5.33301 25 17.666 59 36.999s73.5 36.833 118.5 52.5s90.5 23.5 136.5 23.5c38.667 0 81.167 -9.5 127.5 -28.5s85.833 -46.5 118.5 -82.5s49 -77 49 -123z" />
    <glyph glyph-name="S" unicode="S" horiz-adv-x="1006" 
d="M1016 965h-109v-379c-38.667 22.667 -94 42.334 -166 59.001s-133.333 25 -184 25c-42 0 -92.167 -4.83301 -150.5 -14.5s-110.666 -26.667 -156.999 -51s-69.5 -56.5 -69.5 -96.5c0 -16.667 6.83301 -34.167 20.5 -52.5s34.834 -27.5 63.501 -27.5
c31.333 0 76.833 10.833 136.5 32.5s103.667 36.667 132 45s69.833 12.5 124.5 12.5c51.333 0 100.166 -9.16699 146.499 -27.5s83.333 -44.833 111 -79.5s41.5 -74.667 41.5 -120c0 -54 -19.667 -103 -59 -147s-86.5 -78.5 -141.5 -103.5s-107.5 -39.167 -157.5 -42.5
c48 -48 93.667 -72 137 -72c14 0 29 2 45 6l101 -165c-5.33301 -4.66699 -18.166 -10.334 -38.499 -17.001s-49.833 -10 -88.5 -10c-55.333 0 -97.333 15.667 -126 47s-58.167 73.666 -88.5 126.999s-55.166 80 -74.499 80c-50 2 -99.5 7.16699 -148.5 15.5
s-94.5 25.5 -136.5 51.5s-63 61.667 -63 107c0 30 10.167 51.5 30.5 64.5s43.5 19.5 69.5 19.5c32 0 57.667 -4.66699 77 -14s43.166 -23.5 71.499 -42.5s56.666 -33.5 84.999 -43.5s66.5 -15 114.5 -15c34 0 79.167 6 135.5 18s106.166 29.833 149.499 53.5
s65 52.5 65 86.5c0 18.667 -6.66699 33.834 -20 45.501s-28.666 19.667 -45.999 24s-35.333 6.5 -54 6.5c-24.667 0 -50.834 -3.66699 -78.501 -11l-160.5 -43c-79.333 -21.333 -128 -32 -146 -32c-46 0 -93.167 13.167 -141.5 39.5s-88.666 63.166 -120.999 110.499
s-48.833 99 -49.5 155c0 60.667 22.667 109.834 68 147.501s99.666 64.5 162.999 80.5s123 24 179 24c37.333 0 84.5 -5.83301 141.5 -17.5s100.5 -21.5 130.5 -29.5v170h-796v120h1032v-120z" />
    <glyph glyph-name="T" unicode="T" horiz-adv-x="872" 
d="M885 965l-505.999 -0.000976562v-805c0 -23.333 8.16699 -46 24.5 -68s34.166 -33 53.499 -33c99.333 0 149 102.667 149 308l201 -115c-32.667 -72.667 -77.167 -133.167 -133.5 -181.5s-130.5 -72.5 -222.5 -72.5c-46 0.666992 -88.167 12.834 -126.5 36.501
s-68.833 54 -91.5 91s-34 73.833 -34 110.5v729h-209v120h209v336l180 -125v-211h506v-120z" />
    <glyph glyph-name="U" unicode="U" horiz-adv-x="1112" 
d="M1120 965l-836.997 -0.000976562v-641c1.33301 -46.667 10.166 -90.834 26.499 -132.501s40.166 -75.167 71.499 -100.5s68.333 -38 111 -38c62 0 114.667 13.833 158 41.5s77.333 61.334 102 101.001s42.334 78.334 53.001 116.001s16 68.167 16 91.5v398h203v-852
c-14 8 -44.167 22.333 -90.5 43l-114.5 51v80c-34.667 -25.333 -68.334 -47.5 -101.001 -66.5s-66.334 -33.167 -101.001 -42.5s-75 -14 -121 -14c-66.667 -0 -131.5 17.333 -194.5 52s-113.667 82 -152 142s-57.5 125 -57.5 195v576h-121v120h1149v-120z" />
    <glyph glyph-name="V" unicode="V" horiz-adv-x="1274" 
d="M1282 1085l-1.99902 -120.002h-102v-191c0 -2 -28.167 -52.833 -84.5 -152.5l-195.5 -344l-159 -279.5c-22 0 -54.833 12.167 -98.5 36.5s-88.5 59 -134.5 104s-83.833 96.667 -113.5 155s-44.5 120.833 -44.5 187.5c0 43.333 5.66699 77.666 17 102.999
s26.333 50.5 45 75.5s28 44.167 28 57.5c0 23.333 -19.667 35 -59 35c-24.667 0 -45.834 -6.33301 -63.501 -19s-46.5 -42 -86.5 -88l-129 117c24.667 20.667 47.5 36.334 68.5 47.001s41 17.834 60 21.501s45.833 6.16699 80.5 7.5c107.333 0 179.333 -27.167 216 -81.5
s55 -123.5 55 -207.5c0 -6.66699 -2.83301 -37.167 -8.5 -91.5s-8.5 -101.833 -8.5 -142.5c0 -105.333 18.333 -162.666 55 -171.999c20 0 44.667 25.333 74 76l305 551v195h-1013v120h1298z" />
    <glyph glyph-name="W" unicode="W" horiz-adv-x="1565" 
d="M1579 1085l-2.00098 -120.002h-92v-615c-0.666992 -74.667 -26 -138.5 -76 -191.5s-106.833 -92.667 -170.5 -119s-113.167 -39.5 -148.5 -39.5c-48.667 0 -93.667 8.66699 -135 26s-77 36.833 -107 58.5s-44.333 32.5 -43 32.5
c-21.333 -19.333 -59.5 -43.666 -114.5 -72.999s-120.5 -44 -196.5 -44c-52.667 0 -109.834 17 -171.501 51s-113.5 80.667 -155.5 140s-63 123.333 -63 192c0.666992 121.333 33.834 222.333 99.501 303s120.167 135.334 163.5 164.001l50.5 -55.5l100.5 -104.5
c-6.66699 -7.33301 -28 -26 -64 -56s-69 -60.667 -99 -92s-56.333 -68.666 -79 -111.999s-34 -87.666 -34 -132.999c0 -65.333 12.667 -116.833 38 -154.5s63 -56.5 113 -56.5c96.667 0 172.5 29.5 227.5 88.5s91.5 118.167 109.5 177.5s28.667 103.666 32 132.999l192 -98
c-2 -27.333 -8 -55 -18 -83s-21.333 -52.833 -34 -74.5s-22.667 -36.834 -30 -45.501c4.66699 -7.33301 17 -16.666 37 -27.999s51.667 -17 95 -17c55.333 0 106.833 11 154.5 33s85.334 51.667 113.001 89s41.5 76.666 41.5 117.999l-2 586h-1325v120h1593z" />
    <glyph glyph-name="X" unicode="X" horiz-adv-x="963" 
d="M969 965l-119.003 0.000976562c0 -64.667 -0.166992 -109.167 -0.5 -133.5s-0.833008 -48.166 -1.5 -71.499c-1.33301 -18 -2.66602 -29.167 -3.99902 -33.5s-5.66602 -11.5 -12.999 -21.5l-307 -379c0 -17.333 8.33301 -37 25 -59s37.667 -41.333 63 -58
s50.666 -25 75.999 -25c36 0 74.333 15 115 45s73.334 65 98.001 105v-318c0 -5.33301 -7.66699 -12.333 -23 -21s-48.666 -13.667 -99.999 -15c-58 0 -104.167 11.833 -138.5 35.5s-59.333 50.667 -75 81s-30 66.666 -43 108.999s-23.833 68.166 -32.5 77.499l-239 -283
h-244l373 424c-0.666992 57.333 -13.667 95.833 -39 115.5s-61 29.5 -107 29.5c-13.333 0 -23.333 -0.166992 -30 -0.5s-15.5 -0.833008 -26.5 -1.5s-22.333 -1.5 -34 -2.5s-22.167 -1.5 -31.5 -1.5v283c60 0 109.167 -12.833 147.5 -38.5s68 -57.834 89 -96.501
s39.667 -85 56 -139s25.166 -83 26.499 -87l215 273c6.66699 10.667 11.334 22.334 14.001 35.001v172h-675v120h985v-120z" />
    <glyph glyph-name="Y" unicode="Y" horiz-adv-x="1135" 
d="M1149 1085l-1.99805 -120.001h-844l2 -590c0 -81.333 13.5 -143 40.5 -185s87.833 -67 182.5 -75c57.333 0 111.5 17.833 162.5 53.5s92 80.667 123 135s46.5 106.166 46.5 155.499l-2 377l209 -72v-1024c0 -62.667 -15.5 -120.167 -46.5 -172.5
s-72.833 -96.5 -125.5 -132.5s-111.334 -63.167 -176.001 -81.5s-130.334 -27.5 -197.001 -27.5c-128 0 -235.667 19.667 -323 59s-151.5 85.333 -192.5 138s-61.5 98.334 -61.5 137.001c0.666992 38.667 12.5 75.167 35.5 109.5s53 64.333 90 90
s79.833 46.334 128.5 62.001s95.667 23.5 141 23.5l127 -170c-29.333 -2 -73.333 -8 -132 -18s-117.5 -28.167 -176.5 -54.5s-88.5 -60.833 -88.5 -103.5c2 -16 12.833 -39.833 32.5 -71.5s54.334 -61.334 104.001 -89.001s114.5 -41.834 194.5 -42.501
c82.667 0 160.834 15.333 234.501 46s132.667 74.334 177 131.001s66.5 122 66.5 196v407c-10.667 -17.333 -42.167 -39.333 -94.5 -66s-136.5 -40 -252.5 -40c-72.667 0 -140.834 13.833 -204.501 41.5s-115.334 67.834 -155.001 120.501s-59.5 112.667 -59.5 180v553h-142
v120h1178z" />
    <glyph glyph-name="Z" unicode="Z" horiz-adv-x="1145" 
d="M1167 965h-877.997v-117h772l-539 -629c6 -6 27.333 -18.333 64 -37s79 -35.5 127 -50.5s97 -22.5 147 -22.5c53.333 0 96 8.33301 128 25s55.667 52.667 71 108c6.66699 -21.333 10 -40.666 10 -57.999c0 -34.667 -8.66699 -68.667 -26 -102s-44 -60.833 -80 -82.5
s-78.333 -32.5 -127 -32.5c-66.667 0 -126 8 -178 24s-97.833 34.833 -137.5 56.5l-94.5 52.5c-12 -17.333 -37 -39 -75 -65s-89.333 -39 -154 -39c-34.667 1.33301 -70 12.166 -106 32.499s-54 47.833 -54 82.5c0 52 28.667 94.333 86 127s119.333 49 186 49
c19.333 0 38.666 -2 57.999 -6l376 454c-58.667 0 -151.834 -6.33301 -279.501 -19s-254.834 -39.667 -381.501 -81l82 196v134h-178v122h1181v-122z" />
    <glyph glyph-name="backslash" unicode="\" horiz-adv-x="1184" 
d="M1143 -268h-133l-959 1904h133z" />
    <glyph glyph-name="grave" unicode="`" horiz-adv-x="389" 
d="M338 1190c-2.66699 -2.66699 -10.335 -4.00098 -23.002 -4.00098c-10.667 0 -20 1.33301 -28 4c-48 94 -78.667 151.333 -92 172c-14.667 20 -33.167 33 -55.5 39l-63 17.5c-19.667 5.66699 -35.5 18.834 -47.5 39.501c-2.66699 4 -7.66699 19.5 -15 46.5
s-21.666 58.5 -42.999 94.5v23h39c78 -24 133.333 -45.833 166 -65.5s53.5 -38.667 62.5 -57s21.833 -56 38.5 -113s36.334 -108.167 59.001 -153.5c0.666992 -6 1.16699 -11.5 1.5 -16.5s0.5 -13.833 0.5 -26.5z" />
    <glyph glyph-name="a" unicode="a" horiz-adv-x="961" 
d="M973 965l-666.003 0.00292969v-160c3.33301 0 6 -1.33301 8 -4s4.33301 -4 7 -4c-1.33301 0 12.5 4 41.5 12s62.167 15.167 99.5 21.5s73.333 9.5 108 9.5c80 0 143 -11 189 -33s79.167 -53 99.5 -93s32.666 -84.833 36.999 -134.5s6.5 -117.834 6.5 -204.501v-395
c-36.667 14.667 -69.667 29.167 -99 43.5s-49.666 24.833 -60.999 31.5c0 22 -4 35.667 -12 41l-74 -41.5c-27.333 -15 -63 -28.167 -107 -39.5s-96.333 -17 -157 -17c-58 0 -114.667 10.667 -170 32s-100.166 51.833 -134.499 91.5s-51.5 84.5 -51.5 134.5
c0 46.667 21.667 95.5 65 146.5s101.333 93.333 174 127s152 50.5 238 50.5c46.667 0 91 -6.83301 133 -20.5s74 -28.834 96 -45.501v92c-26 34.667 -52 58.667 -78 72s-66 20 -120 20c-70 -2.66699 -125.167 -8.5 -165.5 -17.5s-83.666 -23 -129.999 -42
s-85.166 -33.833 -116.499 -44.5v74l20 17c8.66699 7.33301 14.5 12.666 17.5 15.999s4.83301 5.33301 5.5 6v258h-205v120h1002v-120zM742.997 332.003c0 30.667 -34.3311 56.333 -102.998 77s-117.334 31 -146.001 31c-72.667 0 -138.834 -15.333 -198.501 -46
s-106.5 -66.167 -140.5 -106.5s-51 -73.5 -51 -99.5c9.33301 -28 30.166 -47.167 62.499 -57.5s66.833 -15.5 103.5 -15.5c68 0 131.167 9 189.5 27s108.833 40.167 151.5 66.5s75.334 51.5 98.001 75.5s34 40 34 48z" />
    <glyph glyph-name="b" unicode="b" horiz-adv-x="1087" 
d="M1096 965l-760 0.00195312v-373c13.333 16.667 36.5 42 69.5 76s75.667 68 128 102s104.5 51 156.5 51c54 0 103.667 -11.167 149 -33.5s84.166 -51.666 116.499 -87.999s57 -75.833 74 -118.5s25.5 -83.334 25.5 -122.001c0 -57.333 -15 -113.833 -45 -169.5
s-68.5 -105 -115.5 -148s-96 -77.333 -147 -103s-94.833 -38.5 -131.5 -38.5c-46 0 -87.5 13.833 -124.5 41.5s-91.5 78.167 -163.5 151.5v-205l-174 75v902h-164v120h164c0 86 -13.167 169.833 -39.5 251.5s-57.5 153.5 -93.5 215.5s-73.167 117 -111.5 165
s-68.166 81.333 -89.499 100h219c26 -22 52.667 -47.833 80 -77.5s58.333 -74.834 93 -135.501s64 -134.334 88 -221.001s36 -186 36 -298h760v-120zM944 356.002c0 27.333 -9.16699 59.168 -27.5 95.501s-43.833 71.5 -76.5 105.5s-72.5 62.667 -119.5 86
s-96.833 35 -149.5 35c-32 0 -64.5 -9.66699 -97.5 -29s-60.5 -41.5 -82.5 -66.5s-33 -43.833 -33 -56.5c0 -46 20.167 -102.833 60.5 -170.5s91.5 -126.5 153.5 -176.5s122.667 -75 182 -75c34 0 65.5 12.667 94.5 38s52.167 57.666 69.5 96.999s26 78.333 26 117z" />
    <glyph glyph-name="c" unicode="c" horiz-adv-x="1044" 
d="M1059 965l-209 -0.00390625v-279c43.333 -40 71.666 -68.5 84.999 -85.5s28.666 -47.833 45.999 -92.5h-133c0 76.667 -21.667 134.334 -65 173.001s-99 58 -167 58c-78.667 0 -150.167 -21.333 -214.5 -64s-114.833 -96.5 -151.5 -161.5s-55 -127.5 -55 -187.5
c0 -37.333 8.5 -72.166 25.5 -104.499s44.667 -58.5 83 -78.5s87.5 -30 147.5 -30c76.667 0 135.834 12.833 177.501 38.5s68.5 46.834 80.5 63.501h213c-8 -32.667 -30.333 -65.667 -67 -99s-80.834 -61 -132.501 -83s-99.167 -33 -142.5 -33c-84 0 -169 23.5 -255 70.5
s-156.167 106.833 -210.5 179.5s-81.5 144.334 -81.5 215.001c0 40 18.167 91.833 54.5 155.5s87.5 119.167 153.5 166.5s141.333 71 226 71c54.667 0 101.334 -6.83301 140.001 -20.5s66.334 -26.5 83.001 -38.5v166h-706v120h1075v-120z" />
    <glyph glyph-name="d" unicode="d" horiz-adv-x="1135" 
d="M1151 965l-131 -0.00195312l-2 -977l-182 78v143c-53.333 -68.667 -104.5 -120.667 -153.5 -156s-103.833 -53 -164.5 -53c-58.667 0 -124.334 23.333 -197.001 70s-134.5 106.334 -185.5 179.001s-76.5 145.334 -76.5 218.001
c1.33301 27.333 10.833 61.166 28.5 101.499s43.667 81.333 78 123s75.833 76.167 124.5 103.5s103 41 163 41c69.333 0 129 -20.833 179 -62.5s118 -109.167 204 -202.5v394h-856v120h856c0 70 -1.83301 127.833 -5.5 173.5s-13.667 95.667 -30 150
s-43.166 115.833 -80.499 184.5s-87.666 145.334 -150.999 230.001c-2.66699 0 -4 5.33301 -4 16c0 8 2 13.333 6 16h191c63.333 -70 122.166 -163 176.499 -279s81.5 -279.667 81.5 -491h131v-120zM788 509.998c0 42 -23.998 83.168 -71.998 123.501s-105 60.5 -171 60.5
c-24.667 0 -65.334 -13.333 -122.001 -40s-108.167 -66 -154.5 -118s-69.5 -114 -69.5 -186c0 -68.667 19.333 -124.667 58 -168s82.667 -65 132 -65c57.333 0 117.166 24.167 179.499 72.5s114.5 104.166 156.5 167.499s63 114.333 63 153z" />
    <glyph glyph-name="e" unicode="e" horiz-adv-x="1040" 
d="M1053 965l-272.999 0.00292969v-197c18 -4 33 -8.83301 45 -14.5s19.667 -9.83398 23 -12.501v-118c-79.333 27.333 -162 41 -248 41c-58.667 0 -122.334 -12 -191.001 -36s-104 -61.333 -106 -112c0 -53.333 75.667 -80 227 -80c12.667 0 34.334 0.833008 65.001 2.5
s50.667 2.83398 60 3.50098v-92c-48 -1.33301 -103.333 -3.83301 -166 -7.5s-118.834 -15.834 -168.501 -36.501s-74.5 -54.334 -74.5 -101.001c0 -38.667 22.833 -70.167 68.5 -94.5s97.167 -36.5 154.5 -36.5c115.333 0 216.833 26.5 304.5 79.5s161.5 122.5 221.5 208.5
v-253c-70.667 -44.667 -139 -74 -205 -88s-133.333 -21 -202 -21c-67.333 0 -143.166 10.167 -227.499 30.5s-156.666 49.666 -216.999 87.999s-90.5 82.833 -90.5 133.5c0 51.333 19.5 92 58.5 122s83.833 57 134.5 81l-66.5 38c-17.667 10 -31.834 22 -42.501 36
s-16 32.333 -16 55c0 44 17.833 80.833 53.5 110.5s80.167 52.167 133.5 67.5s107.666 26 162.999 32s107.333 9 156 9v162h-641v120h1067v-120z" />
    <glyph glyph-name="f" unicode="f" horiz-adv-x="647" 
d="M664 965l-331.999 -0.00292969v-973c-6.66699 0 -64.667 26 -174 78v895h-170v120h162c0 18 -14.833 46.167 -44.5 84.5s-51.334 69 -65.001 92s-20.5 53.167 -20.5 90.5c0 29.333 11.833 64.333 35.5 105s57.834 75.334 102.501 104.001s97 43 157 43
s113 -11.333 159 -34s82 -53.834 108 -93.501s41.667 -85.5 47 -137.5c-30.667 47.333 -65.334 82.166 -104.001 104.499s-77.667 33.5 -117 33.5c-33.333 0 -65 -7.66699 -95 -23s-53.833 -36.166 -71.5 -62.499s-26.5 -53.833 -26.5 -82.5
c0 -18 10.167 -43.167 30.5 -75.5s46.5 -63.166 78.5 -92.499c3.33301 -9.33301 5.5 -19.666 6.5 -30.999s1.5 -19.666 1.5 -24.999h332v-120z" />
    <glyph glyph-name="g" unicode="g" horiz-adv-x="997" 
d="M1055 -162c0 -73.333 -17.0068 -122.667 -51.0068 -148s-77.333 -38 -130 -38c-39.333 0 -71.833 5 -97.5 15s-68.5 29.667 -128.5 59s-111 51 -153 65s-87 21 -135 21c-72 0 -149.333 -16.667 -232 -50s-158.834 -81 -228.501 -143s-124.167 -135 -163.5 -219
c-2.66699 10.667 -4 27.667 -4 51c0 48.667 11.833 102.5 35.5 161.5s57.834 114.667 102.501 167s99.167 95 163.5 128s134.5 49.5 210.5 49.5c74.667 0 132.5 -10.5 173.5 -31.5s95.5 -54.5 163.5 -100.5s119.333 -69 154 -69c40.667 0 80 10.167 118 30.5
s68.5 46.5 91.5 78.5s34.5 62.667 34.5 92c0 32 -7.16699 62.333 -21.5 91s-34.5 51.667 -60.5 69s-56.667 26 -92 26c-34 0 -81.833 -12 -143.5 -36l-185.5 -72.5c-62 -24.333 -110 -36.5 -144 -36.5c-31.333 0 -69.666 14.5 -114.999 43.5s-85 64 -119 105
s-51 78.167 -51 111.5c0 30 17.833 60.333 53.5 91s73.834 48 114.501 52l4 11l-50 69.5c-13.333 18.333 -23.666 36.666 -30.999 54.999s-11 41.5 -11 69.5c0.666992 84 36.834 143.333 108.501 178s161.167 52 268.5 52c4.66699 0.666992 8 3.16699 10 7.5
s3.33301 7.83301 4 10.5v111h-518v120h1028v-120h-352v-168c0 -8 1.5 -18.667 4.5 -32s9.5 -22 19.5 -26c11.333 0 24.833 9.83301 40.5 29.5s29.167 35 40.5 46s29.666 18.167 54.999 21.5c19.333 0 39.833 -6.5 61.5 -19.5s41 -30.5 58 -52.5s28.167 -44 33.5 -66
l-104 -120c0 28 -7.16699 57.5 -21.5 88.5s-33.833 46.5 -58.5 46.5c-6 0 -16 -4 -30 -12s-21 -17 -21 -27c0 -0.666992 3.66699 -8 11 -22s13.5 -29 18.5 -45s7.5 -35.333 7.5 -58c0 -88.667 -30.333 -146.667 -91 -174s-143.667 -41 -249 -41
c-104 0 -180.167 -17.333 -228.5 -52s-72.5 -66 -72.5 -94c2 -25.333 14.333 -44.166 37 -56.499s40.334 -18.5 53.001 -18.5c28 0 56.833 6 86.5 18s73.834 32.333 132.501 61s112.334 51.167 161.001 67.5s97.334 25.5 146.001 27.5c76 0 135.667 -31 179 -93
s72.5 -128.333 87.5 -199s22.5 -123 22.5 -157zM667.993 640.999c0 80.667 -43 121.001 -129 121.001c-50 0 -98 -13 -144 -39s-83.333 -58.667 -112 -98s-43 -77.666 -43 -114.999c0 -24.667 11.833 -52.834 35.5 -84.501s58.167 -47.834 103.5 -48.501
c28.667 0 66.667 11.167 114 33.5s88.333 53.333 123 93s52 85.5 52 137.5z" />
    <glyph glyph-name="h" unicode="h" horiz-adv-x="1087" 
d="M1098 965l-806.997 0.000976562v-301l50 53c18.667 19.333 40 37.666 64 54.999s53.333 32.333 88 45s73.667 19 117 19c82 0 154.5 -22.5 217.5 -67.5s112.167 -102.5 147.5 -172.5s53 -139 53 -207c0 -70.667 -17 -136 -51 -196s-68 -106.667 -102 -140
s-59.333 -56.333 -76 -69l-164 98c9.33301 13.333 29.333 35.666 60 66.999s57.667 62.333 81 93s44 69 62 115s27.333 97.667 28 155c0 70 -16.667 126.833 -50 170.5s-79.333 65.5 -138 65.5c-54.667 -2 -112.834 -21.667 -174.501 -59s-113.5 -84 -155.5 -140
s-63 -110 -63 -162v-397l-187 100v875h-110v120h110c0 108 -15.333 204.833 -46 290.5s-66.334 156.167 -107.001 211.5s-75.834 96.333 -105.501 123s-51.167 44.334 -64.5 53.001l202 2c48.667 -26.667 97.5 -75.5 146.5 -146.5s89.167 -154.667 120.5 -251
s47 -190.5 47 -282.5h807v-120z" />
    <glyph glyph-name="i" unicode="i" horiz-adv-x="389" 
d="M338 1190c-2.66699 -2.66699 -10.335 -4.00098 -23.002 -4.00098c-10.667 0 -20 1.33301 -28 4c-48 94 -78.667 151.333 -92 172c-14.667 20 -33.167 33 -55.5 39l-63 17.5c-19.667 5.66699 -35.5 18.834 -47.5 39.501c-2.66699 4 -7.66699 19.5 -15 46.5
s-21.666 58.5 -42.999 94.5v23h39c78 -24 133.333 -45.833 166 -65.5s53.5 -38.667 62.5 -57s21.833 -56 38.5 -113s36.334 -108.167 59.001 -153.5c0.666992 -6 1.16699 -11.5 1.5 -16.5s0.5 -13.833 0.5 -26.5zM396.999 964.999h-407v120h407v-120zM282.999 -23.001
l-168 93v772h168v-865z" />
    <glyph glyph-name="j" unicode="j" horiz-adv-x="500" 
d="M406 1190c-4 -2.66699 -11.668 -4.00293 -23.001 -4.00293c-10 0 -20.333 1.33301 -31 4c-53.333 104 -84 161.333 -92 172c-13.333 19.333 -31.666 32.333 -54.999 39l-64 18c-19.333 5.33301 -35 18.333 -47 39c-3.33301 6.66699 -6.33301 16.834 -9 30.501
s-8.5 30.834 -17.5 51.501s-19.167 40.334 -30.5 59.001v23h41c76.667 -23.333 131.334 -44.833 164.001 -64.5s54.167 -40 64.5 -61s23.166 -58.667 38.499 -113s34 -104.5 56 -150.5c3.33301 -20 5 -34.333 5 -43zM546.999 964.997h-602v120h602v-120zM409.999 -385.003
c0 -27.333 -11.666 -56.833 -34.999 -88.5s-55.5 -58.667 -96.5 -81s-84.833 -33.5 -131.5 -33.5c-53.333 0 -108.5 19.667 -165.5 59s-95.833 82 -116.5 128l155 120c4.66699 -64 17.667 -122.333 39 -175s55.666 -79 102.999 -79c21.333 0 38.5 8 51.5 24s19.5 36 19.5 60
v1293h177v-1227z" />
    <glyph glyph-name="k" unicode="k" horiz-adv-x="920" 
d="M932 965l-656.002 -0.00195312v-258c17.333 8 44.5 22.333 81.5 43s74 36 111 46s81.5 15 133.5 15c66 0 130 -20.167 192 -60.5s93 -95.833 93 -166.5c0 -46.667 -15.667 -87.667 -47 -123s-68.833 -61.666 -112.5 -78.999s-81.5 -26 -113.5 -26l232 -282l-127 -92
l-357 424l66 137c35.333 -10 72.333 -15 111 -15c59.333 0 107.5 14.667 144.5 44s55.5 70 55.5 122c0 53.333 -38 80 -114 80c-50 0 -102.333 -22.167 -157 -66.5s-100.667 -96.5 -138 -156.5s-56 -109.333 -56 -148v-419l-172 77v904h-127v120h121
c0 106 -10.167 199 -30.5 279s-44.666 146 -72.999 198s-60.166 101 -95.499 147s-54.333 71.667 -57 77h203c9.33301 -8.66699 25 -27.167 47 -55.5s46.833 -70.166 74.5 -125.499s52.5 -128.5 74.5 -219.5s33 -191.167 33 -300.5h660v-120z" />
    <glyph glyph-name="l" unicode="l" horiz-adv-x="426" 
d="M442 965h-106v120h106v-120zM100 965h-114v120h114v-120zM303 1206l-0.000976562 -1231c-2.66699 0 -11.5 3.83301 -26.5 11.5l-51.5 26.5l-60 30.5c-20.667 10.333 -32 15.5 -34 15.5v1145c-3.33301 79.333 -17 153.666 -41 222.999s-50.833 127 -80.5 173
s-61.667 88.333 -96 127l-63.5 71h213c56.667 -56.667 103.334 -121.5 140.001 -194.5s62.5 -144 77.5 -213s22.5 -130.5 22.5 -184.5z" />
    <glyph glyph-name="m" unicode="m" horiz-adv-x="1511" 
d="M1524 965l-330 0.00390625l2 -140c88.667 -32.667 153.834 -75.834 195.501 -129.501s62.5 -129.834 62.5 -228.501c0 -74 -16.5 -141.667 -49.5 -203s-71.667 -111.833 -116 -151.5s-86.5 -71 -126.5 -94s-62.667 -34.5 -68 -34.5c-10 0 -37.5 22 -82.5 66l-110.5 110
c62.667 3.33301 132.334 24 209.001 62s142.334 87.167 197.001 147.5s82 124.166 82 191.499c0 34.667 -10.333 63.5 -31 86.5s-47.5 40.333 -80.5 52s-68.5 17.5 -106.5 17.5c-115.333 -6.66699 -204.833 -43.834 -268.5 -111.501s-106.5 -156.167 -128.5 -265.5
c-4.66699 1.33301 -32.334 12.5 -83.001 33.5l-122 50.5c0 32.667 6.5 65.334 19.5 98.001s28 62.667 45 90s25.5 41.666 25.5 42.999c0 18 -16.333 30.333 -49 37s-61.334 10 -86.001 10c-54.667 0 -106.167 -14.333 -154.5 -43s-86.5 -65.167 -114.5 -109.5
s-42 -88.833 -42 -133.5c0 -50 13.667 -98.333 41 -145s56.666 -86.834 87.999 -120.501s70.166 -71 116.499 -112s70.833 -64.833 73.5 -71.5c-42.667 14.667 -92.834 36.334 -150.501 65.001s-115.167 64.834 -172.5 108.501s-104.833 93.167 -142.5 148.5
s-56.5 114.666 -56.5 177.999c0 72.667 20.667 137.5 62 194.5s94.5 101.333 159.5 133s131.833 47.5 200.5 47.5c54.667 0 103.334 -7.83301 146.001 -23.5s81.834 -34.167 117.501 -55.5s55.167 -32 58.5 -32c0.666992 0 19 8.33301 55 25s73.167 32 111.5 46
s70.833 23 97.5 27l2 136h-1040v120h1544v-120z" />
    <glyph glyph-name="n" unicode="n" horiz-adv-x="1049" 
d="M1065 965h-1075v120h1075v-120zM850 526c0 160 -75.6689 240.003 -227.002 240.003c-44 0 -89.167 -13 -135.5 -39s-87.666 -62 -123.999 -108s-65.666 -100.667 -87.999 -164s-33.5 -129 -33.5 -197v-291l-164 86v752h172v-119l69.5 54
c32.333 25.333 71.666 48.666 117.999 69.999s96.5 32 150.5 32c52.667 0 103.334 -11.333 152.001 -34s92 -54.334 130 -95.001s68 -88.5 90 -143.5s33 -113.833 33 -176.5c0 -70.667 -15.333 -142.834 -46 -216.501s-79.334 -146.834 -146.001 -219.501l-193 121
c12 16 34.333 39.333 67 70s61.334 61.834 86.001 93.501s45.667 71 63 118s26 102.5 26 166.5z" />
    <glyph glyph-name="o" unicode="o" horiz-adv-x="1049" 
d="M1067 965l-225.001 0.000976562v-275c0 -6 9.5 -17.833 28.5 -35.5s36 -35.5 51 -53.5s29 -44.833 42 -80.5s19.5 -79.5 19.5 -131.5c0 -70.667 -18 -136.334 -54 -197.001s-85.667 -108.167 -149 -142.5s-133 -51.5 -209 -51.5c-50 0 -105.333 12.833 -166 38.5
s-118.167 61.167 -172.5 106.5s-98.166 96.5 -131.499 153.5s-50 115.833 -50 176.5c0 44 16 94.667 48 152s78.167 106.833 138.5 148.5s132.833 62.5 217.5 62.5c46.667 0 115.667 -12.333 207 -37c4 0 6 2.66699 6 8v158h-686v120h1085v-120zM835.999 522.001
c0 50.667 -12.832 91.666 -38.499 122.999s-54.334 53.166 -86.001 65.499s-57.834 18.5 -78.501 18.5c-32 0 -72.5 -9.16699 -121.5 -27.5s-97.5 -46.166 -145.5 -83.499s-87.833 -84.166 -119.5 -140.499s-47.5 -119.833 -47.5 -190.5c0 -29.333 10 -58 30 -86
s46 -50.833 78 -68.5s65 -26.5 99 -26.5s76.333 10.667 127 32s98.834 50.5 144.501 87.5s83.5 80.833 113.5 131.5s45 105.667 45 165z" />
    <glyph glyph-name="p" unicode="p" horiz-adv-x="1116" 
d="M1135 965h-1147v120h1147v-120zM1055 412c0 -72.667 -22.002 -141.169 -66.002 -205.502s-98.5 -115.166 -163.5 -152.499s-125.833 -56 -182.5 -56c-51.333 0 -106.5 21 -165.5 63s-131.5 103.667 -217.5 185v-848l-160 84v1323h156v-244l60.5 64
c28.333 30 60.833 61.5 97.5 94.5s77 62.333 121 88s85.333 38.5 124 38.5c36.667 0 77.834 -12.5 123.501 -37.5s89.334 -58.167 131.001 -99.5s75.667 -88.166 102 -140.499s39.5 -104.5 39.5 -156.5zM955.998 527.998c0 16 -6.49805 38.3301 -19.498 66.9971
s-32.833 54.834 -59.5 78.501s-59.667 35.5 -99 35.5c-44 0 -93.333 -14.667 -148 -44s-106.667 -66.166 -156 -110.499s-89.833 -89.666 -121.5 -135.999s-47.5 -84.166 -47.5 -113.499c0 -20.667 11.667 -41.834 35 -63.501s53.333 -40 90 -55s73 -22.5 109 -22.5
c60 0 116.167 12.833 168.5 38.5s96.666 57.5 132.999 95.5s64.666 77.833 84.999 119.5s30.5 78.5 30.5 110.5z" />
    <glyph glyph-name="q" unicode="q" horiz-adv-x="1151" 
d="M1167 1085l-2 -120h-1177v120h1179zM1059 -535l-180 -94.001v889c-39.333 -44 -100 -99 -182 -165s-160.667 -99 -236 -99c-32 0 -69.5 10.333 -112.5 31s-85 50.834 -126 90.501s-74.5 86.167 -100.5 139.5s-40 112.333 -42 177c0 45.333 18 101.5 54 168.5
s81.5 124.667 136.5 173s107.5 72.5 157.5 72.5c29.333 0 70 -9.83301 122 -29.5s108 -51 168 -94s113.667 -96.833 161 -161.5v215h180v-1313zM834 294.999c0 56.667 -30.165 115.668 -90.498 177.001s-129 113.666 -206 156.999s-129.833 65 -158.5 65
c-54 0 -102 -17 -144 -51s-63 -68.667 -63 -104c0 -30.667 14.667 -76.667 44 -138s74.166 -116.166 134.499 -164.499s134.5 -72.5 222.5 -72.5c49.333 0 93.666 7.83301 132.999 23.5s70.5 34.167 93.5 55.5s34.5 38.666 34.5 51.999z" />
    <glyph glyph-name="r" unicode="r" horiz-adv-x="983" 
d="M1001 965h-1011v120h1011v-120zM918 606c0 -43.333 -24.5 -87.999 -73.5 -133.999s-90.167 -77 -123.5 -93l-150 170c56 5.33301 103.167 25.5 141.5 60.5s57.5 69.5 57.5 103.5c0 14 -11 30.833 -33 50.5s-50.667 29.5 -86 29.5c-43.333 0 -92.333 -20 -147 -60
s-101.167 -91.667 -139.5 -155s-57.5 -127 -57.5 -191v-424l-192 100v740h194v-76c5.33301 5.33301 25 17.666 59 36.999s73.5 36.833 118.5 52.5s90.5 23.5 136.5 23.5c38.667 0 81.167 -9.5 127.5 -28.5s85.833 -46.5 118.5 -82.5s49 -77 49 -123z" />
    <glyph glyph-name="s" unicode="s" horiz-adv-x="1006" 
d="M1016 965h-109v-379c-38.667 22.667 -94 42.334 -166 59.001s-133.333 25 -184 25c-42 0 -92.167 -4.83301 -150.5 -14.5s-110.666 -26.667 -156.999 -51s-69.5 -56.5 -69.5 -96.5c0 -16.667 6.83301 -34.167 20.5 -52.5s34.834 -27.5 63.501 -27.5
c31.333 0 76.833 10.833 136.5 32.5s103.667 36.667 132 45s69.833 12.5 124.5 12.5c51.333 0 100.166 -9.16699 146.499 -27.5s83.333 -44.833 111 -79.5s41.5 -74.667 41.5 -120c0 -54 -19.667 -103 -59 -147s-86.5 -78.5 -141.5 -103.5s-107.5 -39.167 -157.5 -42.5
c48 -48 93.667 -72 137 -72c14 0 29 2 45 6l101 -165c-5.33301 -4.66699 -18.166 -10.334 -38.499 -17.001s-49.833 -10 -88.5 -10c-55.333 0 -97.333 15.667 -126 47s-58.167 73.666 -88.5 126.999s-55.166 80 -74.499 80c-50 2 -99.5 7.16699 -148.5 15.5
s-94.5 25.5 -136.5 51.5s-63 61.667 -63 107c0 30 10.167 51.5 30.5 64.5s43.5 19.5 69.5 19.5c32 0 57.667 -4.66699 77 -14s43.166 -23.5 71.499 -42.5s56.666 -33.5 84.999 -43.5s66.5 -15 114.5 -15c34 0 79.167 6 135.5 18s106.166 29.833 149.499 53.5
s65 52.5 65 86.5c0 18.667 -6.66699 33.834 -20 45.501s-28.666 19.667 -45.999 24s-35.333 6.5 -54 6.5c-24.667 0 -50.834 -3.66699 -78.501 -11l-160.5 -43c-79.333 -21.333 -128 -32 -146 -32c-46 0 -93.167 13.167 -141.5 39.5s-88.666 63.166 -120.999 110.499
s-48.833 99 -49.5 155c0 60.667 22.667 109.834 68 147.501s99.666 64.5 162.999 80.5s123 24 179 24c37.333 0 84.5 -5.83301 141.5 -17.5s100.5 -21.5 130.5 -29.5v170h-796v120h1032v-120z" />
    <glyph glyph-name="t" unicode="t" horiz-adv-x="872" 
d="M885 965l-505.999 -0.000976562v-805c0 -23.333 8.16699 -46 24.5 -68s34.166 -33 53.499 -33c99.333 0 149 102.667 149 308l201 -115c-32.667 -72.667 -77.167 -133.167 -133.5 -181.5s-130.5 -72.5 -222.5 -72.5c-46 0.666992 -88.167 12.834 -126.5 36.501
s-68.833 54 -91.5 91s-34 73.833 -34 110.5v729h-209v120h209v336l180 -125v-211h506v-120z" />
    <glyph glyph-name="u" unicode="u" horiz-adv-x="1112" 
d="M1120 965l-836.997 -0.000976562v-641c1.33301 -46.667 10.166 -90.834 26.499 -132.501s40.166 -75.167 71.499 -100.5s68.333 -38 111 -38c62 0 114.667 13.833 158 41.5s77.333 61.334 102 101.001s42.334 78.334 53.001 116.001s16 68.167 16 91.5v398h203v-852
c-14 8 -44.167 22.333 -90.5 43l-114.5 51v80c-34.667 -25.333 -68.334 -47.5 -101.001 -66.5s-66.334 -33.167 -101.001 -42.5s-75 -14 -121 -14c-66.667 -0 -131.5 17.333 -194.5 52s-113.667 82 -152 142s-57.5 125 -57.5 195v576h-121v120h1149v-120z" />
    <glyph glyph-name="v" unicode="v" horiz-adv-x="1274" 
d="M1282 1085l-1.99902 -120.002h-102v-191c0 -2 -28.167 -52.833 -84.5 -152.5l-195.5 -344l-159 -279.5c-22 0 -54.833 12.167 -98.5 36.5s-88.5 59 -134.5 104s-83.833 96.667 -113.5 155s-44.5 120.833 -44.5 187.5c0 43.333 5.66699 77.666 17 102.999
s26.333 50.5 45 75.5s28 44.167 28 57.5c0 23.333 -19.667 35 -59 35c-24.667 0 -45.834 -6.33301 -63.501 -19s-46.5 -42 -86.5 -88l-129 117c24.667 20.667 47.5 36.334 68.5 47.001s41 17.834 60 21.501s45.833 6.16699 80.5 7.5c107.333 0 179.333 -27.167 216 -81.5
s55 -123.5 55 -207.5c0 -6.66699 -2.83301 -37.167 -8.5 -91.5s-8.5 -101.833 -8.5 -142.5c0 -105.333 18.333 -162.666 55 -171.999c20 0 44.667 25.333 74 76l305 551v195h-1013v120h1298z" />
    <glyph glyph-name="w" unicode="w" horiz-adv-x="1565" 
d="M1579 1085l-2.00098 -120.002h-92v-615c-0.666992 -74.667 -26 -138.5 -76 -191.5s-106.833 -92.667 -170.5 -119s-113.167 -39.5 -148.5 -39.5c-48.667 0 -93.667 8.66699 -135 26s-77 36.833 -107 58.5s-44.333 32.5 -43 32.5
c-21.333 -19.333 -59.5 -43.666 -114.5 -72.999s-120.5 -44 -196.5 -44c-52.667 0 -109.834 17 -171.501 51s-113.5 80.667 -155.5 140s-63 123.333 -63 192c0.666992 121.333 33.834 222.333 99.501 303s120.167 135.334 163.5 164.001l50.5 -55.5l100.5 -104.5
c-6.66699 -7.33301 -28 -26 -64 -56s-69 -60.667 -99 -92s-56.333 -68.666 -79 -111.999s-34 -87.666 -34 -132.999c0 -65.333 12.667 -116.833 38 -154.5s63 -56.5 113 -56.5c96.667 0 172.5 29.5 227.5 88.5s91.5 118.167 109.5 177.5s28.667 103.666 32 132.999l192 -98
c-2 -27.333 -8 -55 -18 -83s-21.333 -52.833 -34 -74.5s-22.667 -36.834 -30 -45.501c4.66699 -7.33301 17 -16.666 37 -27.999s51.667 -17 95 -17c55.333 0 106.833 11 154.5 33s85.334 51.667 113.001 89s41.5 76.666 41.5 117.999l-2 586h-1325v120h1593z" />
    <glyph glyph-name="x" unicode="x" horiz-adv-x="963" 
d="M969 965l-119.003 0.000976562c0 -64.667 -0.166992 -109.167 -0.5 -133.5s-0.833008 -48.166 -1.5 -71.499c-1.33301 -18 -2.66602 -29.167 -3.99902 -33.5s-5.66602 -11.5 -12.999 -21.5l-307 -379c0 -17.333 8.33301 -37 25 -59s37.667 -41.333 63 -58
s50.666 -25 75.999 -25c36 0 74.333 15 115 45s73.334 65 98.001 105v-318c0 -5.33301 -7.66699 -12.333 -23 -21s-48.666 -13.667 -99.999 -15c-58 0 -104.167 11.833 -138.5 35.5s-59.333 50.667 -75 81s-30 66.666 -43 108.999s-23.833 68.166 -32.5 77.499l-239 -283
h-244l373 424c-0.666992 57.333 -13.667 95.833 -39 115.5s-61 29.5 -107 29.5c-13.333 0 -23.333 -0.166992 -30 -0.5s-15.5 -0.833008 -26.5 -1.5s-22.333 -1.5 -34 -2.5s-22.167 -1.5 -31.5 -1.5v283c60 0 109.167 -12.833 147.5 -38.5s68 -57.834 89 -96.501
s39.667 -85 56 -139s25.166 -83 26.499 -87l215 273c6.66699 10.667 11.334 22.334 14.001 35.001v172h-675v120h985v-120z" />
    <glyph glyph-name="y" unicode="y" horiz-adv-x="1135" 
d="M1149 1085l-1.99805 -120.001h-844l2 -590c0 -81.333 13.5 -143 40.5 -185s87.833 -67 182.5 -75c57.333 0 111.5 17.833 162.5 53.5s92 80.667 123 135s46.5 106.166 46.5 155.499l-2 377l209 -72v-1024c0 -62.667 -15.5 -120.167 -46.5 -172.5
s-72.833 -96.5 -125.5 -132.5s-111.334 -63.167 -176.001 -81.5s-130.334 -27.5 -197.001 -27.5c-128 0 -235.667 19.667 -323 59s-151.5 85.333 -192.5 138s-61.5 98.334 -61.5 137.001c0.666992 38.667 12.5 75.167 35.5 109.5s53 64.333 90 90
s79.833 46.334 128.5 62.001s95.667 23.5 141 23.5l127 -170c-29.333 -2 -73.333 -8 -132 -18s-117.5 -28.167 -176.5 -54.5s-88.5 -60.833 -88.5 -103.5c2 -16 12.833 -39.833 32.5 -71.5s54.334 -61.334 104.001 -89.001s114.5 -41.834 194.5 -42.501
c82.667 0 160.834 15.333 234.501 46s132.667 74.334 177 131.001s66.5 122 66.5 196v407c-10.667 -17.333 -42.167 -39.333 -94.5 -66s-136.5 -40 -252.5 -40c-72.667 0 -140.834 13.833 -204.501 41.5s-115.334 67.834 -155.001 120.501s-59.5 112.667 -59.5 180v553h-142
v120h1178z" />
    <glyph glyph-name="z" unicode="z" horiz-adv-x="1145" 
d="M1167 965h-877.997v-117h772l-539 -629c6 -6 27.333 -18.333 64 -37s79 -35.5 127 -50.5s97 -22.5 147 -22.5c53.333 0 96 8.33301 128 25s55.667 52.667 71 108c6.66699 -21.333 10 -40.666 10 -57.999c0 -34.667 -8.66699 -68.667 -26 -102s-44 -60.833 -80 -82.5
s-78.333 -32.5 -127 -32.5c-66.667 0 -126 8 -178 24s-97.833 34.833 -137.5 56.5l-94.5 52.5c-12 -17.333 -37 -39 -75 -65s-89.333 -39 -154 -39c-34.667 1.33301 -70 12.166 -106 32.499s-54 47.833 -54 82.5c0 52 28.667 94.333 86 127s119.333 49 186 49
c19.333 0 38.666 -2 57.999 -6l376 454c-58.667 0 -151.834 -6.33301 -279.501 -19s-254.834 -39.667 -381.501 -81l82 196v134h-178v122h1181v-122z" />
    <glyph glyph-name="bar" unicode="|" horiz-adv-x="358" 
d="M240 -266l-121 73v1829h121v-1902z" />
    <glyph glyph-name="nonbreakingspace" unicode="&#xa0;" horiz-adv-x="1024" 
 />
    <glyph glyph-name="acute" unicode="&#xb4;" horiz-adv-x="389" 
d="M418 1599c-19.333 -34 -33.333 -65.168 -42 -93.501s-14 -44.166 -16 -47.499c-12 -20.667 -27.833 -33.834 -47.5 -39.501l-63 -17.5c-22.333 -6 -40.5 -19 -54.5 -39c-10 -13.333 -41 -70.666 -93 -171.999c-8 -2.66699 -17.333 -4 -28 -4
c-12.667 0 -20.334 1.33301 -23.001 4c-2.66699 8 -4 12.667 -4 14l6 29c22.667 45.333 41.5 94.833 56.5 148.5s27.833 91.5 38.5 113.5s32.334 42.667 65.001 62s88 41 166 65h39v-23z" />
    <glyph glyph-name="oe" unicode="&#x153;" horiz-adv-x="829" 
d="M797 1257c0 -56.667 -7.66992 -105.331 -23.0029 -145.998s-34.5 -75.167 -57.5 -103.5s-58.5 -66.5 -106.5 -114.5c-104.667 -103.333 -157 -200.333 -157 -291c0 -16.667 1.5 -30.334 4.5 -41.001s5.5 -18 7.5 -22l-272 -140c-4 12 -8.83301 29.5 -14.5 52.5
s-8.5 40.5 -8.5 52.5c0 72 18.667 135.333 56 190s93.833 116.334 169.5 185.001s130 123.167 163 163.5s49.5 88.166 49.5 143.499c0 64.667 -16.333 116.5 -49 155.5s-75.5 66.833 -128.5 83.5s-113.167 25.667 -180.5 27c-60 0 -102.333 -2.5 -127 -7.5
s-47.667 -13.5 -69 -25.5s-38.666 -20.667 -51.999 -26c45.333 92 108.833 156.167 190.5 192.5s158.834 54.5 231.501 54.5c32.667 0 69.834 -6.33301 111.501 -19s82 -32.834 121 -60.501s72.167 -67.167 99.5 -118.5s41 -113 41 -185zM556.997 197.003l-53.501 -60
c-27 -30 -69.833 -75 -128.5 -135c-0.666992 0 -17.667 14.5 -51 43.5s-64.666 59.167 -93.999 90.5s-44 51.666 -44 60.999c0 12 28.333 47 85 105s87 87 91 87c10 0 45 -30.667 105 -92s90 -94.666 90 -99.999z" />
    <glyph glyph-name="circumflex" unicode="&#x2c6;" horiz-adv-x="1073" 
d="M1090 965l-791 0.00195312v-975c-52.667 25.333 -93 46.166 -121 62.499s-43 26.166 -45 29.499v883h-149v120h133c8 0 12 6.33301 12 19c0 8.66699 -13.333 28.167 -40 58.5s-48.167 59.666 -64.5 87.999s-24.5 62.833 -24.5 103.5c-0 44 15.833 83.833 47.5 119.5
s71.667 65.334 120 89.001s99 41.834 152 54.501s100.833 19 143.5 19c68.667 0 134 -10 196 -30s117 -46.167 165 -78.5s89 -68.833 123 -109.5s56.333 -80 67 -118l-87 61.5c-32 23 -68.833 46.5 -110.5 70.5s-84.834 44 -129.501 60s-90.667 24 -138 24
c-61.333 0 -119.666 -8.66699 -174.999 -26s-100.166 -41.333 -134.499 -72s-51.5 -64.334 -51.5 -101.001c0 -28.667 10.167 -59.5 30.5 -92.5s43.166 -62.167 68.499 -87.5c8 -10 12 -27.333 12 -52h791v-120z" />
    <glyph glyph-name="quoteleft" unicode="&#x2018;" 
d="M258 1618c-3.33301 -4.66699 -16.5 -18.499 -39.5 -41.499s-34.5 -41.833 -34.5 -56.5c0 -12 3.5 -23 10.5 -33s16.667 -19.833 29 -29.5s21.833 -16.834 28.5 -21.501l-105 -97c-12.667 0 -30.5 12.167 -53.5 36.5s-34.5 47.166 -34.5 68.499c0 24 11 49.5 33 76.5
s48.667 49.833 80 68.5s60 28.334 86 29.001zM301 965.001h-313v120h313v-120z" />
    <glyph glyph-name="quoteright" unicode="&#x2019;" 
d="M250 1497c0 -24 -11.168 -49.667 -33.501 -77s-49.166 -50 -80.499 -68s-59.666 -27 -84.999 -27c7.33301 8.66699 17.666 19.334 30.999 32.001s23.833 24.167 31.5 34.5s11.5 20.833 11.5 31.5c0 16 -4.66699 28.667 -14 38s-27.333 24.666 -54 45.999l105 97
c13.333 0 31.333 -12.167 54 -36.5s34 -47.833 34 -70.5zM300.999 965h-313v120h313v-120z" />
    <glyph glyph-name="quotedblleft" unicode="&#x201c;" 
d="M541 1618c-4.66699 -6 -18.501 -20.168 -41.501 -42.501s-34.5 -40.833 -34.5 -55.5c0 -11.333 3.66699 -22.166 11 -32.499s16 -19.333 26 -27l33 -24.5l-105 -97c-12 0 -30 12 -54 36s-36 47 -36 69c0 35.333 23.333 72.833 70 112.5s90.334 60.167 131.001 61.5z
M247.999 1618c-4.66699 -6 -18.501 -20.168 -41.501 -42.501s-34.5 -40.833 -34.5 -55.5c0 -11.333 3.66699 -22.166 11 -32.499s16 -19.333 26 -27l33 -24.5l-105 -97c-12 0 -30 12 -54 36s-36 47 -36 69c0 35.333 23.333 72.833 70 112.5s90.334 60.167 131.001 61.5z
M601.998 964.998h-604v120h604v-120z" />
    <glyph glyph-name="quotedblright" unicode="&#x201d;" 
d="M584 1497c0 -36 -23.3301 -73.668 -69.9971 -113.001s-90.334 -59 -131.001 -59c5.33301 6.66699 15.666 17.167 30.999 31.5s26.666 26.333 33.999 36s11 19.834 11 30.501s-3.5 21 -10.5 31s-16 19.333 -27 28l-32.5 25l105 97c14 0 32.5 -12.333 55.5 -37
s34.5 -48 34.5 -70zM291.003 1497c0 -36 -23.3301 -73.668 -69.9971 -113.001s-90.334 -59 -131.001 -59c5.33301 6.66699 15.666 17.167 30.999 31.5s26.666 26.333 33.999 36s11 19.834 11 30.501s-3.5 21 -10.5 31s-16 19.333 -27 28l-32.5 25l105 97
c14 0 32.5 -12.333 55.5 -37s34.5 -48 34.5 -70zM602.006 964.998h-604v120h604v-120z" />
    <glyph glyph-name=".null" horiz-adv-x="0" 
 />
    <glyph glyph-name="nonmarkingreturn" horiz-adv-x="0" 
 />
    <glyph glyph-name="c128" horiz-adv-x="666" 
d="M678 965h-688v120h688v-120z" />
    </font>
</defs>
</svg>
